<?xml version="1.0" encoding="utf-8"?>
<!-- Generator: Adobe Illustrator 24.2.2, SVG Export Plug-In . SVG Version: 6.00 Build 0)  -->
<svg version="1.1" id="Layer_1" xmlns="http://www.w3.org/2000/svg" xmlns:xlink="http://www.w3.org/1999/xlink" x="0px" y="0px"
	 viewBox="0 0 335.1 335.1" style="enable-background:new 0 0 335.1 335.1;" xml:space="preserve">
<style type="text/css">
	.st0{fill:none;stroke:#000000;stroke-width:0.4018;stroke-miterlimit:11.3386;}
</style>
<path class="st0" d="M315,320.6H20.1c-3.1,0-5.7-2.5-5.7-5.7V20.1c0-3.1,2.5-5.7,5.7-5.7H315c3.1,0,5.7,2.5,5.7,5.7V315
	C320.6,318.1,318.1,320.6,315,320.6z"/>
<circle class="st0" cx="167.6" cy="28.7" r="4.5"/>
<circle class="st0" cx="306.4" cy="28.7" r="4.5"/>
<circle class="st0" cx="306.4" cy="167.6" r="4.5"/>
<circle class="st0" cx="28.7" cy="28.7" r="4.5"/>
<circle class="st0" cx="28.7" cy="167.6" r="4.5"/>
<circle class="st0" cx="167.6" cy="306.4" r="4.5"/>
<circle class="st0" cx="306.4" cy="306.4" r="4.5"/>
<circle class="st0" cx="28.7" cy="306.4" r="4.5"/>
<polygon class="st0" points="228.7,228.7 228.7,268.4 268.4,268.4 268.4,228.7 "/>
<polygon class="st0" points="174.7,228.7 174.7,268.4 214.4,268.4 214.4,228.7 "/>
<polygon class="st0" points="120.7,228.7 120.7,268.4 160.4,268.4 160.4,228.7 "/>
<polygon class="st0" points="66.7,228.7 66.7,268.4 106.4,268.4 106.4,228.7 "/>
<polygon class="st0" points="228.7,174.7 228.7,214.4 268.4,214.4 268.4,174.7 "/>
<polygon class="st0" points="174.7,174.7 174.7,214.4 214.4,214.4 214.4,174.7 "/>
<polygon class="st0" points="120.7,174.7 120.7,214.4 160.4,214.4 160.4,174.7 "/>
<polygon class="st0" points="66.7,174.7 66.7,214.4 106.4,214.4 106.4,174.7 "/>
<polygon class="st0" points="228.7,120.7 228.7,160.4 268.4,160.4 268.4,120.7 "/>
<polygon class="st0" points="174.7,120.7 174.7,160.4 214.4,160.4 214.4,120.7 "/>
<polygon class="st0" points="120.7,120.7 120.7,160.4 160.4,160.4 160.4,120.7 "/>
<polygon class="st0" points="66.7,120.7 66.7,160.4 106.4,160.4 106.4,120.7 "/>
<polygon class="st0" points="228.7,66.7 228.7,106.4 268.4,106.4 268.4,66.7 "/>
<polygon class="st0" points="174.7,66.7 174.7,106.4 214.4,106.4 214.4,66.7 "/>
<polygon class="st0" points="120.7,66.7 120.7,106.4 160.4,106.4 160.4,66.7 "/>
<polygon class="st0" points="66.7,66.7 66.7,106.4 106.4,106.4 106.4,66.7 "/>
</svg>
