G04 #@! TF.GenerationSoftware,KiCad,Pcbnew,(5.1.6)-1*
G04 #@! TF.CreationDate,2020-08-22T18:55:14+02:00*
G04 #@! TF.ProjectId,europa-bottom-plate,6575726f-7061-42d6-926f-74746f6d2d70,rev?*
G04 #@! TF.SameCoordinates,Original*
G04 #@! TF.FileFunction,Soldermask,Top*
G04 #@! TF.FilePolarity,Negative*
%FSLAX46Y46*%
G04 Gerber Fmt 4.6, Leading zero omitted, Abs format (unit mm)*
G04 Created by KiCad (PCBNEW (5.1.6)-1) date 2020-08-22 18:55:14*
%MOMM*%
%LPD*%
G01*
G04 APERTURE LIST*
%ADD10C,0.100000*%
G04 APERTURE END LIST*
D10*
G36*
X208746506Y-145118798D02*
G01*
X208852829Y-145139947D01*
X209153292Y-145264403D01*
X209423701Y-145445085D01*
X209653665Y-145675049D01*
X209834347Y-145945458D01*
X209958803Y-146245921D01*
X210022250Y-146564891D01*
X210022250Y-146890109D01*
X209958803Y-147209079D01*
X209834347Y-147509542D01*
X209653665Y-147779951D01*
X209423701Y-148009915D01*
X209153292Y-148190597D01*
X208852829Y-148315053D01*
X208746506Y-148336202D01*
X208533861Y-148378500D01*
X208208639Y-148378500D01*
X207995994Y-148336202D01*
X207889671Y-148315053D01*
X207589208Y-148190597D01*
X207318799Y-148009915D01*
X207088835Y-147779951D01*
X206908153Y-147509542D01*
X206783697Y-147209079D01*
X206720250Y-146890109D01*
X206720250Y-146564891D01*
X206783697Y-146245921D01*
X206908153Y-145945458D01*
X207088835Y-145675049D01*
X207318799Y-145445085D01*
X207589208Y-145264403D01*
X207889671Y-145139947D01*
X207995994Y-145118798D01*
X208208639Y-145076500D01*
X208533861Y-145076500D01*
X208746506Y-145118798D01*
G37*
G36*
X159746506Y-145118798D02*
G01*
X159852829Y-145139947D01*
X160153292Y-145264403D01*
X160423701Y-145445085D01*
X160653665Y-145675049D01*
X160834347Y-145945458D01*
X160958803Y-146245921D01*
X161022250Y-146564891D01*
X161022250Y-146890109D01*
X160958803Y-147209079D01*
X160834347Y-147509542D01*
X160653665Y-147779951D01*
X160423701Y-148009915D01*
X160153292Y-148190597D01*
X159852829Y-148315053D01*
X159746506Y-148336202D01*
X159533861Y-148378500D01*
X159208639Y-148378500D01*
X158995994Y-148336202D01*
X158889671Y-148315053D01*
X158589208Y-148190597D01*
X158318799Y-148009915D01*
X158088835Y-147779951D01*
X157908153Y-147509542D01*
X157783697Y-147209079D01*
X157720250Y-146890109D01*
X157720250Y-146564891D01*
X157783697Y-146245921D01*
X157908153Y-145945458D01*
X158088835Y-145675049D01*
X158318799Y-145445085D01*
X158589208Y-145264403D01*
X158889671Y-145139947D01*
X158995994Y-145118798D01*
X159208639Y-145076500D01*
X159533861Y-145076500D01*
X159746506Y-145118798D01*
G37*
G36*
X110746506Y-145118798D02*
G01*
X110852829Y-145139947D01*
X111153292Y-145264403D01*
X111423701Y-145445085D01*
X111653665Y-145675049D01*
X111834347Y-145945458D01*
X111958803Y-146245921D01*
X112022250Y-146564891D01*
X112022250Y-146890109D01*
X111958803Y-147209079D01*
X111834347Y-147509542D01*
X111653665Y-147779951D01*
X111423701Y-148009915D01*
X111153292Y-148190597D01*
X110852829Y-148315053D01*
X110746506Y-148336202D01*
X110533861Y-148378500D01*
X110208639Y-148378500D01*
X109995994Y-148336202D01*
X109889671Y-148315053D01*
X109589208Y-148190597D01*
X109318799Y-148009915D01*
X109088835Y-147779951D01*
X108908153Y-147509542D01*
X108783697Y-147209079D01*
X108720250Y-146890109D01*
X108720250Y-146564891D01*
X108783697Y-146245921D01*
X108908153Y-145945458D01*
X109088835Y-145675049D01*
X109318799Y-145445085D01*
X109589208Y-145264403D01*
X109889671Y-145139947D01*
X109995994Y-145118798D01*
X110208639Y-145076500D01*
X110533861Y-145076500D01*
X110746506Y-145118798D01*
G37*
G36*
X208746506Y-96118798D02*
G01*
X208852829Y-96139947D01*
X209153292Y-96264403D01*
X209423701Y-96445085D01*
X209653665Y-96675049D01*
X209834347Y-96945458D01*
X209958803Y-97245921D01*
X210022250Y-97564891D01*
X210022250Y-97890109D01*
X209958803Y-98209079D01*
X209834347Y-98509542D01*
X209653665Y-98779951D01*
X209423701Y-99009915D01*
X209153292Y-99190597D01*
X208852829Y-99315053D01*
X208746506Y-99336202D01*
X208533861Y-99378500D01*
X208208639Y-99378500D01*
X207995994Y-99336202D01*
X207889671Y-99315053D01*
X207589208Y-99190597D01*
X207318799Y-99009915D01*
X207088835Y-98779951D01*
X206908153Y-98509542D01*
X206783697Y-98209079D01*
X206720250Y-97890109D01*
X206720250Y-97564891D01*
X206783697Y-97245921D01*
X206908153Y-96945458D01*
X207088835Y-96675049D01*
X207318799Y-96445085D01*
X207589208Y-96264403D01*
X207889671Y-96139947D01*
X207995994Y-96118798D01*
X208208639Y-96076500D01*
X208533861Y-96076500D01*
X208746506Y-96118798D01*
G37*
G36*
X110746506Y-96118798D02*
G01*
X110852829Y-96139947D01*
X111153292Y-96264403D01*
X111423701Y-96445085D01*
X111653665Y-96675049D01*
X111834347Y-96945458D01*
X111958803Y-97245921D01*
X112022250Y-97564891D01*
X112022250Y-97890109D01*
X111958803Y-98209079D01*
X111834347Y-98509542D01*
X111653665Y-98779951D01*
X111423701Y-99009915D01*
X111153292Y-99190597D01*
X110852829Y-99315053D01*
X110746506Y-99336202D01*
X110533861Y-99378500D01*
X110208639Y-99378500D01*
X109995994Y-99336202D01*
X109889671Y-99315053D01*
X109589208Y-99190597D01*
X109318799Y-99009915D01*
X109088835Y-98779951D01*
X108908153Y-98509542D01*
X108783697Y-98209079D01*
X108720250Y-97890109D01*
X108720250Y-97564891D01*
X108783697Y-97245921D01*
X108908153Y-96945458D01*
X109088835Y-96675049D01*
X109318799Y-96445085D01*
X109589208Y-96264403D01*
X109889671Y-96139947D01*
X109995994Y-96118798D01*
X110208639Y-96076500D01*
X110533861Y-96076500D01*
X110746506Y-96118798D01*
G37*
G36*
X208746506Y-47118798D02*
G01*
X208852829Y-47139947D01*
X209153292Y-47264403D01*
X209423701Y-47445085D01*
X209653665Y-47675049D01*
X209834347Y-47945458D01*
X209958803Y-48245921D01*
X210022250Y-48564891D01*
X210022250Y-48890109D01*
X209958803Y-49209079D01*
X209834347Y-49509542D01*
X209653665Y-49779951D01*
X209423701Y-50009915D01*
X209153292Y-50190597D01*
X208852829Y-50315053D01*
X208746506Y-50336202D01*
X208533861Y-50378500D01*
X208208639Y-50378500D01*
X207995994Y-50336202D01*
X207889671Y-50315053D01*
X207589208Y-50190597D01*
X207318799Y-50009915D01*
X207088835Y-49779951D01*
X206908153Y-49509542D01*
X206783697Y-49209079D01*
X206720250Y-48890109D01*
X206720250Y-48564891D01*
X206783697Y-48245921D01*
X206908153Y-47945458D01*
X207088835Y-47675049D01*
X207318799Y-47445085D01*
X207589208Y-47264403D01*
X207889671Y-47139947D01*
X207995994Y-47118798D01*
X208208639Y-47076500D01*
X208533861Y-47076500D01*
X208746506Y-47118798D01*
G37*
G36*
X159746506Y-47118798D02*
G01*
X159852829Y-47139947D01*
X160153292Y-47264403D01*
X160423701Y-47445085D01*
X160653665Y-47675049D01*
X160834347Y-47945458D01*
X160958803Y-48245921D01*
X161022250Y-48564891D01*
X161022250Y-48890109D01*
X160958803Y-49209079D01*
X160834347Y-49509542D01*
X160653665Y-49779951D01*
X160423701Y-50009915D01*
X160153292Y-50190597D01*
X159852829Y-50315053D01*
X159746506Y-50336202D01*
X159533861Y-50378500D01*
X159208639Y-50378500D01*
X158995994Y-50336202D01*
X158889671Y-50315053D01*
X158589208Y-50190597D01*
X158318799Y-50009915D01*
X158088835Y-49779951D01*
X157908153Y-49509542D01*
X157783697Y-49209079D01*
X157720250Y-48890109D01*
X157720250Y-48564891D01*
X157783697Y-48245921D01*
X157908153Y-47945458D01*
X158088835Y-47675049D01*
X158318799Y-47445085D01*
X158589208Y-47264403D01*
X158889671Y-47139947D01*
X158995994Y-47118798D01*
X159208639Y-47076500D01*
X159533861Y-47076500D01*
X159746506Y-47118798D01*
G37*
G36*
X110746506Y-47118798D02*
G01*
X110852829Y-47139947D01*
X111153292Y-47264403D01*
X111423701Y-47445085D01*
X111653665Y-47675049D01*
X111834347Y-47945458D01*
X111958803Y-48245921D01*
X112022250Y-48564891D01*
X112022250Y-48890109D01*
X111958803Y-49209079D01*
X111834347Y-49509542D01*
X111653665Y-49779951D01*
X111423701Y-50009915D01*
X111153292Y-50190597D01*
X110852829Y-50315053D01*
X110746506Y-50336202D01*
X110533861Y-50378500D01*
X110208639Y-50378500D01*
X109995994Y-50336202D01*
X109889671Y-50315053D01*
X109589208Y-50190597D01*
X109318799Y-50009915D01*
X109088835Y-49779951D01*
X108908153Y-49509542D01*
X108783697Y-49209079D01*
X108720250Y-48890109D01*
X108720250Y-48564891D01*
X108783697Y-48245921D01*
X108908153Y-47945458D01*
X109088835Y-47675049D01*
X109318799Y-47445085D01*
X109589208Y-47264403D01*
X109889671Y-47139947D01*
X109995994Y-47118798D01*
X110208639Y-47076500D01*
X110533861Y-47076500D01*
X110746506Y-47118798D01*
G37*
M02*
