G04 #@! TF.GenerationSoftware,KiCad,Pcbnew,(5.1.6)-1*
G04 #@! TF.CreationDate,2020-08-22T19:02:41+02:00*
G04 #@! TF.ProjectId,europa-switch-plate,6575726f-7061-42d7-9377-697463682d70,rev?*
G04 #@! TF.SameCoordinates,Original*
G04 #@! TF.FileFunction,Profile,NP*
%FSLAX46Y46*%
G04 Gerber Fmt 4.6, Leading zero omitted, Abs format (unit mm)*
G04 Created by KiCad (PCBNEW (5.1.6)-1) date 2020-08-22 19:02:41*
%MOMM*%
%LPD*%
G01*
G04 APERTURE LIST*
G04 #@! TA.AperFunction,Profile*
%ADD10C,0.200000*%
G04 #@! TD*
G04 APERTURE END LIST*
D10*
X115381253Y-61912500D02*
X115381253Y-75912501D01*
X167481250Y-75912501D02*
X167481250Y-61912500D01*
X134431253Y-119062500D02*
X134431253Y-133062499D01*
X202956252Y-151487500D02*
X98956252Y-151487500D01*
X115381253Y-94962499D02*
X129381254Y-94962499D01*
X186531252Y-114012498D02*
X186531252Y-100012498D01*
X115381253Y-133062499D02*
X129381254Y-133062499D01*
X172531253Y-100012498D02*
X172531253Y-114012498D01*
X172531253Y-119062500D02*
X172531253Y-133062499D01*
X172531253Y-114012498D02*
X186531252Y-114012498D01*
X153481251Y-100012498D02*
X153481251Y-114012498D01*
X148431252Y-133062499D02*
X148431252Y-119062500D01*
X167481250Y-114012498D02*
X167481250Y-100012498D01*
X167481250Y-133062499D02*
X167481250Y-119062500D01*
X134431253Y-133062499D02*
X148431252Y-133062499D01*
X167481250Y-100012498D02*
X153481251Y-100012498D01*
X153481251Y-119062500D02*
X153481251Y-133062499D01*
X172531253Y-94962499D02*
X186531252Y-94962499D01*
X172531253Y-133062499D02*
X186531252Y-133062499D01*
X134431253Y-94962499D02*
X148431252Y-94962499D01*
X129381254Y-75912501D02*
X129381254Y-61912500D01*
X134431253Y-100012498D02*
X134431253Y-114012498D01*
X153481251Y-80962500D02*
X153481251Y-94962499D01*
X186531252Y-119062500D02*
X172531253Y-119062500D01*
X129381254Y-80962500D02*
X115381253Y-80962500D01*
X134431253Y-75912501D02*
X148431252Y-75912501D01*
X129381254Y-133062499D02*
X129381254Y-119062500D01*
X129381254Y-119062500D02*
X115381253Y-119062500D01*
X167481250Y-61912500D02*
X153481251Y-61912500D01*
X153481251Y-133062499D02*
X167481250Y-133062499D01*
X204956252Y-149487500D02*
X204945926Y-149691988D01*
X204945926Y-149691988D02*
X204915619Y-149890569D01*
X204915619Y-149890569D02*
X204834892Y-150175166D01*
X204834892Y-150175166D02*
X204714862Y-150440818D01*
X204714862Y-150440818D02*
X204558922Y-150684131D01*
X204558922Y-150684131D02*
X204370465Y-150901713D01*
X204370465Y-150901713D02*
X204152884Y-151090170D01*
X204152884Y-151090170D02*
X203909570Y-151246110D01*
X203909570Y-151246110D02*
X203643919Y-151366140D01*
X203643919Y-151366140D02*
X203359321Y-151446867D01*
X203359321Y-151446867D02*
X203160740Y-151477174D01*
X203160740Y-151477174D02*
X202956252Y-151487500D01*
X153481251Y-61912500D02*
X153481251Y-75912501D01*
X129381254Y-61912500D02*
X115381253Y-61912500D01*
X186531252Y-133062499D02*
X186531252Y-119062500D01*
X98956252Y-43487500D02*
X202956252Y-43487500D01*
X115381253Y-119062500D02*
X115381253Y-133062499D01*
X148431252Y-80962500D02*
X134431253Y-80962500D01*
X202956252Y-43487500D02*
X203160740Y-43497825D01*
X203160740Y-43497825D02*
X203359321Y-43528132D01*
X203359321Y-43528132D02*
X203643919Y-43608859D01*
X203643919Y-43608859D02*
X203909570Y-43728889D01*
X203909570Y-43728889D02*
X204152884Y-43884829D01*
X204152884Y-43884829D02*
X204370465Y-44073286D01*
X204370465Y-44073286D02*
X204558922Y-44290867D01*
X204558922Y-44290867D02*
X204714862Y-44534181D01*
X204714862Y-44534181D02*
X204834892Y-44799832D01*
X204834892Y-44799832D02*
X204915619Y-45084430D01*
X204915619Y-45084430D02*
X204945926Y-45283011D01*
X204945926Y-45283011D02*
X204956252Y-45487500D01*
X204956252Y-45487500D02*
X204956252Y-149487500D01*
X115381253Y-75912501D02*
X129381254Y-75912501D01*
X148431252Y-119062500D02*
X134431253Y-119062500D01*
X186531252Y-100012498D02*
X172531253Y-100012498D01*
X129381254Y-100012498D02*
X115381253Y-100012498D01*
X172531253Y-61912500D02*
X172531253Y-75912501D01*
X129381254Y-94962499D02*
X129381254Y-80962500D01*
X186531252Y-61912500D02*
X172531253Y-61912500D01*
X186531252Y-75912501D02*
X186531252Y-61912500D01*
X148431252Y-100012498D02*
X134431253Y-100012498D01*
X148431252Y-61912500D02*
X134431253Y-61912500D01*
X153481251Y-94962499D02*
X167481250Y-94962499D01*
X148431252Y-114012498D02*
X148431252Y-100012498D01*
X153481251Y-114012498D02*
X167481250Y-114012498D01*
X153481251Y-75912501D02*
X167481250Y-75912501D01*
X134431253Y-61912500D02*
X134431253Y-75912501D01*
X129381254Y-114012498D02*
X129381254Y-100012498D01*
X167481250Y-80962500D02*
X153481251Y-80962500D01*
X148431252Y-94962499D02*
X148431252Y-80962500D01*
X186531252Y-80962500D02*
X172531253Y-80962500D01*
X134431253Y-80962500D02*
X134431253Y-94962499D01*
X115381253Y-100012498D02*
X115381253Y-114012498D01*
X148431252Y-75912501D02*
X148431252Y-61912500D01*
X115381253Y-114012498D02*
X129381254Y-114012498D01*
X186531252Y-94962499D02*
X186531252Y-80962500D01*
X172531253Y-75912501D02*
X186531252Y-75912501D01*
X115381253Y-80962500D02*
X115381253Y-94962499D01*
X96956252Y-149487500D02*
X96956252Y-45487500D01*
X134431253Y-114012498D02*
X148431252Y-114012498D01*
X96956252Y-45487500D02*
X96966577Y-45283011D01*
X96966577Y-45283011D02*
X96996884Y-45084430D01*
X96996884Y-45084430D02*
X97077611Y-44799832D01*
X97077611Y-44799832D02*
X97197641Y-44534181D01*
X97197641Y-44534181D02*
X97353581Y-44290867D01*
X97353581Y-44290867D02*
X97542038Y-44073286D01*
X97542038Y-44073286D02*
X97759620Y-43884829D01*
X97759620Y-43884829D02*
X98002933Y-43728889D01*
X98002933Y-43728889D02*
X98268585Y-43608859D01*
X98268585Y-43608859D02*
X98553182Y-43528132D01*
X98553182Y-43528132D02*
X98751763Y-43497825D01*
X98751763Y-43497825D02*
X98956252Y-43487500D01*
X98956252Y-151487500D02*
X98751763Y-151477174D01*
X98751763Y-151477174D02*
X98553182Y-151446867D01*
X98553182Y-151446867D02*
X98268585Y-151366140D01*
X98268585Y-151366140D02*
X98002933Y-151246110D01*
X98002933Y-151246110D02*
X97759620Y-151090170D01*
X97759620Y-151090170D02*
X97542038Y-150901713D01*
X97542038Y-150901713D02*
X97353581Y-150684131D01*
X97353581Y-150684131D02*
X97197641Y-150440818D01*
X97197641Y-150440818D02*
X97077611Y-150175166D01*
X97077611Y-150175166D02*
X96996884Y-149890569D01*
X96996884Y-149890569D02*
X96966577Y-149691988D01*
X96966577Y-149691988D02*
X96956252Y-149487500D01*
X167481250Y-94962499D02*
X167481250Y-80962500D01*
X172531253Y-80962500D02*
X172531253Y-94962499D01*
X167481250Y-119062500D02*
X153481251Y-119062500D01*
M02*
