M48
; DRILL file {KiCad (5.1.6)-1} date 08/20/20 21:51:50
; FORMAT={-:-/ absolute / inch / decimal}
; #@! TF.CreationDate,2020-08-20T21:51:50+02:00
; #@! TF.GenerationSoftware,Kicad,Pcbnew,(5.1.6)-1
; #@! TF.FileFunction,NonPlated,1,2,NPTH
FMAT,2
INCH
T1C0.0689
T2C0.1570
%
G90
G05
T1
X4.4875Y-4.0625
X4.4875Y-3.3125
X4.8875Y-3.3125
X3.7375Y-2.5625
X4.1375Y-2.5625
X2.9875Y-2.5625
X3.3875Y-2.5625
X2.9875Y-3.3125
X3.3875Y-3.3125
X2.9875Y-4.8125
X3.3875Y-4.8125
X3.7375Y-4.8125
X4.1375Y-4.8125
X3.7375Y-3.3125
X4.1375Y-3.3125
X5.2375Y-4.8125
X5.6375Y-4.8125
X4.4875Y-2.5625
X4.8875Y-2.5625
X5.2375Y-2.5625
X5.6375Y-2.5625
X4.4875Y-4.8125
X4.8875Y-4.8125
X5.2375Y-3.3125
X5.6375Y-3.3125
X3.7375Y-4.0625
X4.1375Y-4.0625
X2.9875Y-4.0625
X3.3875Y-4.0625
X5.2375Y-4.0625
X5.6375Y-4.0625
X4.8875Y-4.0625
T2
X4.6875Y-3.3125
X3.9375Y-2.5625
X3.1875Y-2.5625
X3.1875Y-3.3125
X3.1875Y-4.8125
X3.9375Y-4.8125
X3.9375Y-3.3125
X5.4375Y-4.8125
X4.6875Y-2.5625
X5.4375Y-2.5625
X4.6875Y-4.8125
X5.4375Y-3.3125
X3.9375Y-4.0625
X3.1875Y-4.0625
X5.4375Y-4.0625
X4.6875Y-4.0625
T0
M30
