G04 #@! TF.GenerationSoftware,KiCad,Pcbnew,(5.1.6)-1*
G04 #@! TF.CreationDate,2020-08-20T21:51:45+02:00*
G04 #@! TF.ProjectId,europa,6575726f-7061-42e6-9b69-6361645f7063,rev?*
G04 #@! TF.SameCoordinates,Original*
G04 #@! TF.FileFunction,Legend,Top*
G04 #@! TF.FilePolarity,Positive*
%FSLAX46Y46*%
G04 Gerber Fmt 4.6, Leading zero omitted, Abs format (unit mm)*
G04 Created by KiCad (PCBNEW (5.1.6)-1) date 2020-08-20 21:51:45*
%MOMM*%
%LPD*%
G01*
G04 APERTURE LIST*
%ADD10C,0.100000*%
%ADD11C,0.125000*%
%ADD12C,0.010000*%
%ADD13C,1.702000*%
%ADD14R,1.702000X1.702000*%
%ADD15C,4.089800*%
%ADD16C,1.852000*%
%ADD17O,1.702000X1.702000*%
G04 APERTURE END LIST*
D10*
X133485714Y-133008630D02*
X133152380Y-132532440D01*
X132914285Y-133008630D02*
X132914285Y-132008630D01*
X133295238Y-132008630D01*
X133390476Y-132056250D01*
X133438095Y-132103869D01*
X133485714Y-132199107D01*
X133485714Y-132341964D01*
X133438095Y-132437202D01*
X133390476Y-132484821D01*
X133295238Y-132532440D01*
X132914285Y-132532440D01*
X134295238Y-132961011D02*
X134200000Y-133008630D01*
X134009523Y-133008630D01*
X133914285Y-132961011D01*
X133866666Y-132865773D01*
X133866666Y-132484821D01*
X133914285Y-132389583D01*
X134009523Y-132341964D01*
X134200000Y-132341964D01*
X134295238Y-132389583D01*
X134342857Y-132484821D01*
X134342857Y-132580059D01*
X133866666Y-132675297D01*
X134676190Y-132341964D02*
X134914285Y-133008630D01*
X135152380Y-132341964D01*
X136819047Y-133008630D02*
X136247619Y-133008630D01*
X136533333Y-133008630D02*
X136533333Y-132008630D01*
X136438095Y-132151488D01*
X136342857Y-132246726D01*
X136247619Y-132294345D01*
X137247619Y-132913392D02*
X137295238Y-132961011D01*
X137247619Y-133008630D01*
X137200000Y-132961011D01*
X137247619Y-132913392D01*
X137247619Y-133008630D01*
X137914285Y-132008630D02*
X138009523Y-132008630D01*
X138104761Y-132056250D01*
X138152380Y-132103869D01*
X138200000Y-132199107D01*
X138247619Y-132389583D01*
X138247619Y-132627678D01*
X138200000Y-132818154D01*
X138152380Y-132913392D01*
X138104761Y-132961011D01*
X138009523Y-133008630D01*
X137914285Y-133008630D01*
X137819047Y-132961011D01*
X137771428Y-132913392D01*
X137723809Y-132818154D01*
X137676190Y-132627678D01*
X137676190Y-132389583D01*
X137723809Y-132199107D01*
X137771428Y-132103869D01*
X137819047Y-132056250D01*
X137914285Y-132008630D01*
X140390476Y-132008630D02*
X140485714Y-132008630D01*
X140580952Y-132056250D01*
X140628571Y-132103869D01*
X140676190Y-132199107D01*
X140723809Y-132389583D01*
X140723809Y-132627678D01*
X140676190Y-132818154D01*
X140628571Y-132913392D01*
X140580952Y-132961011D01*
X140485714Y-133008630D01*
X140390476Y-133008630D01*
X140295238Y-132961011D01*
X140247619Y-132913392D01*
X140200000Y-132818154D01*
X140152380Y-132627678D01*
X140152380Y-132389583D01*
X140200000Y-132199107D01*
X140247619Y-132103869D01*
X140295238Y-132056250D01*
X140390476Y-132008630D01*
X141295238Y-132437202D02*
X141200000Y-132389583D01*
X141152380Y-132341964D01*
X141104761Y-132246726D01*
X141104761Y-132199107D01*
X141152380Y-132103869D01*
X141200000Y-132056250D01*
X141295238Y-132008630D01*
X141485714Y-132008630D01*
X141580952Y-132056250D01*
X141628571Y-132103869D01*
X141676190Y-132199107D01*
X141676190Y-132246726D01*
X141628571Y-132341964D01*
X141580952Y-132389583D01*
X141485714Y-132437202D01*
X141295238Y-132437202D01*
X141200000Y-132484821D01*
X141152380Y-132532440D01*
X141104761Y-132627678D01*
X141104761Y-132818154D01*
X141152380Y-132913392D01*
X141200000Y-132961011D01*
X141295238Y-133008630D01*
X141485714Y-133008630D01*
X141580952Y-132961011D01*
X141628571Y-132913392D01*
X141676190Y-132818154D01*
X141676190Y-132627678D01*
X141628571Y-132532440D01*
X141580952Y-132484821D01*
X141485714Y-132437202D01*
X142819047Y-131961011D02*
X141961904Y-133246726D01*
X143104761Y-132103869D02*
X143152380Y-132056250D01*
X143247619Y-132008630D01*
X143485714Y-132008630D01*
X143580952Y-132056250D01*
X143628571Y-132103869D01*
X143676190Y-132199107D01*
X143676190Y-132294345D01*
X143628571Y-132437202D01*
X143057142Y-133008630D01*
X143676190Y-133008630D01*
X144295238Y-132008630D02*
X144390476Y-132008630D01*
X144485714Y-132056250D01*
X144533333Y-132103869D01*
X144580952Y-132199107D01*
X144628571Y-132389583D01*
X144628571Y-132627678D01*
X144580952Y-132818154D01*
X144533333Y-132913392D01*
X144485714Y-132961011D01*
X144390476Y-133008630D01*
X144295238Y-133008630D01*
X144200000Y-132961011D01*
X144152380Y-132913392D01*
X144104761Y-132818154D01*
X144057142Y-132627678D01*
X144057142Y-132389583D01*
X144104761Y-132199107D01*
X144152380Y-132103869D01*
X144200000Y-132056250D01*
X144295238Y-132008630D01*
X145009523Y-132103869D02*
X145057142Y-132056250D01*
X145152380Y-132008630D01*
X145390476Y-132008630D01*
X145485714Y-132056250D01*
X145533333Y-132103869D01*
X145580952Y-132199107D01*
X145580952Y-132294345D01*
X145533333Y-132437202D01*
X144961904Y-133008630D01*
X145580952Y-133008630D01*
X146200000Y-132008630D02*
X146295238Y-132008630D01*
X146390476Y-132056250D01*
X146438095Y-132103869D01*
X146485714Y-132199107D01*
X146533333Y-132389583D01*
X146533333Y-132627678D01*
X146485714Y-132818154D01*
X146438095Y-132913392D01*
X146390476Y-132961011D01*
X146295238Y-133008630D01*
X146200000Y-133008630D01*
X146104761Y-132961011D01*
X146057142Y-132913392D01*
X146009523Y-132818154D01*
X145961904Y-132627678D01*
X145961904Y-132389583D01*
X146009523Y-132199107D01*
X146057142Y-132103869D01*
X146104761Y-132056250D01*
X146200000Y-132008630D01*
D11*
X93251785Y-56241071D02*
X93251785Y-54741071D01*
X93251785Y-56169642D02*
X93108928Y-56241071D01*
X92823214Y-56241071D01*
X92680357Y-56169642D01*
X92608928Y-56098214D01*
X92537500Y-55955357D01*
X92537500Y-55526785D01*
X92608928Y-55383928D01*
X92680357Y-55312500D01*
X92823214Y-55241071D01*
X93108928Y-55241071D01*
X93251785Y-55312500D01*
X94537500Y-56169642D02*
X94394642Y-56241071D01*
X94108928Y-56241071D01*
X93966071Y-56169642D01*
X93894642Y-56026785D01*
X93894642Y-55455357D01*
X93966071Y-55312500D01*
X94108928Y-55241071D01*
X94394642Y-55241071D01*
X94537500Y-55312500D01*
X94608928Y-55455357D01*
X94608928Y-55598214D01*
X93894642Y-55741071D01*
X95180357Y-56169642D02*
X95323214Y-56241071D01*
X95608928Y-56241071D01*
X95751785Y-56169642D01*
X95823214Y-56026785D01*
X95823214Y-55955357D01*
X95751785Y-55812500D01*
X95608928Y-55741071D01*
X95394642Y-55741071D01*
X95251785Y-55669642D01*
X95180357Y-55526785D01*
X95180357Y-55455357D01*
X95251785Y-55312500D01*
X95394642Y-55241071D01*
X95608928Y-55241071D01*
X95751785Y-55312500D01*
X96466071Y-56241071D02*
X96466071Y-55241071D01*
X96466071Y-54741071D02*
X96394642Y-54812500D01*
X96466071Y-54883928D01*
X96537500Y-54812500D01*
X96466071Y-54741071D01*
X96466071Y-54883928D01*
X97823214Y-55241071D02*
X97823214Y-56455357D01*
X97751785Y-56598214D01*
X97680357Y-56669642D01*
X97537500Y-56741071D01*
X97323214Y-56741071D01*
X97180357Y-56669642D01*
X97823214Y-56169642D02*
X97680357Y-56241071D01*
X97394642Y-56241071D01*
X97251785Y-56169642D01*
X97180357Y-56098214D01*
X97108928Y-55955357D01*
X97108928Y-55526785D01*
X97180357Y-55383928D01*
X97251785Y-55312500D01*
X97394642Y-55241071D01*
X97680357Y-55241071D01*
X97823214Y-55312500D01*
X98537500Y-55241071D02*
X98537500Y-56241071D01*
X98537500Y-55383928D02*
X98608928Y-55312500D01*
X98751785Y-55241071D01*
X98966071Y-55241071D01*
X99108928Y-55312500D01*
X99180357Y-55455357D01*
X99180357Y-56241071D01*
X100466071Y-56169642D02*
X100323214Y-56241071D01*
X100037500Y-56241071D01*
X99894642Y-56169642D01*
X99823214Y-56026785D01*
X99823214Y-55455357D01*
X99894642Y-55312500D01*
X100037500Y-55241071D01*
X100323214Y-55241071D01*
X100466071Y-55312500D01*
X100537500Y-55455357D01*
X100537500Y-55598214D01*
X99823214Y-55741071D01*
X101823214Y-56241071D02*
X101823214Y-54741071D01*
X101823214Y-56169642D02*
X101680357Y-56241071D01*
X101394642Y-56241071D01*
X101251785Y-56169642D01*
X101180357Y-56098214D01*
X101108928Y-55955357D01*
X101108928Y-55526785D01*
X101180357Y-55383928D01*
X101251785Y-55312500D01*
X101394642Y-55241071D01*
X101680357Y-55241071D01*
X101823214Y-55312500D01*
X103680357Y-56241071D02*
X103680357Y-54741071D01*
X103680357Y-55312500D02*
X103823214Y-55241071D01*
X104108928Y-55241071D01*
X104251785Y-55312500D01*
X104323214Y-55383928D01*
X104394642Y-55526785D01*
X104394642Y-55955357D01*
X104323214Y-56098214D01*
X104251785Y-56169642D01*
X104108928Y-56241071D01*
X103823214Y-56241071D01*
X103680357Y-56169642D01*
X104894642Y-55241071D02*
X105251785Y-56241071D01*
X105608928Y-55241071D02*
X105251785Y-56241071D01*
X105108928Y-56598214D01*
X105037500Y-56669642D01*
X104894642Y-56741071D01*
X107966071Y-56241071D02*
X107966071Y-55455357D01*
X107894642Y-55312500D01*
X107751785Y-55241071D01*
X107466071Y-55241071D01*
X107323214Y-55312500D01*
X107966071Y-56169642D02*
X107823214Y-56241071D01*
X107466071Y-56241071D01*
X107323214Y-56169642D01*
X107251785Y-56026785D01*
X107251785Y-55883928D01*
X107323214Y-55741071D01*
X107466071Y-55669642D01*
X107823214Y-55669642D01*
X107966071Y-55598214D01*
X109323214Y-55241071D02*
X109323214Y-56241071D01*
X108680357Y-55241071D02*
X108680357Y-56026785D01*
X108751785Y-56169642D01*
X108894642Y-56241071D01*
X109108928Y-56241071D01*
X109251785Y-56169642D01*
X109323214Y-56098214D01*
X110037500Y-56241071D02*
X110037500Y-55241071D01*
X110037500Y-55526785D02*
X110108928Y-55383928D01*
X110180357Y-55312500D01*
X110323214Y-55241071D01*
X110466071Y-55241071D01*
X111537500Y-56169642D02*
X111394642Y-56241071D01*
X111108928Y-56241071D01*
X110966071Y-56169642D01*
X110894642Y-56026785D01*
X110894642Y-55455357D01*
X110966071Y-55312500D01*
X111108928Y-55241071D01*
X111394642Y-55241071D01*
X111537500Y-55312500D01*
X111608928Y-55455357D01*
X111608928Y-55598214D01*
X110894642Y-55741071D01*
X112466071Y-56241071D02*
X112323214Y-56169642D01*
X112251785Y-56026785D01*
X112251785Y-54741071D01*
X113037500Y-56241071D02*
X113037500Y-55241071D01*
X113037500Y-54741071D02*
X112966071Y-54812500D01*
X113037500Y-54883928D01*
X113108928Y-54812500D01*
X113037500Y-54741071D01*
X113037500Y-54883928D01*
X114323214Y-56169642D02*
X114180357Y-56241071D01*
X113894642Y-56241071D01*
X113751785Y-56169642D01*
X113680357Y-56026785D01*
X113680357Y-55455357D01*
X113751785Y-55312500D01*
X113894642Y-55241071D01*
X114180357Y-55241071D01*
X114323214Y-55312500D01*
X114394642Y-55455357D01*
X114394642Y-55598214D01*
X113680357Y-55741071D01*
X115037500Y-55241071D02*
X115037500Y-56241071D01*
X115037500Y-55383928D02*
X115108928Y-55312500D01*
X115251785Y-55241071D01*
X115466071Y-55241071D01*
X115608928Y-55312500D01*
X115680357Y-55455357D01*
X115680357Y-56241071D01*
X117037500Y-55241071D02*
X117037500Y-56455357D01*
X116966071Y-56598214D01*
X116894642Y-56669642D01*
X116751785Y-56741071D01*
X116537500Y-56741071D01*
X116394642Y-56669642D01*
X117037500Y-56169642D02*
X116894642Y-56241071D01*
X116608928Y-56241071D01*
X116466071Y-56169642D01*
X116394642Y-56098214D01*
X116323214Y-55955357D01*
X116323214Y-55526785D01*
X116394642Y-55383928D01*
X116466071Y-55312500D01*
X116608928Y-55241071D01*
X116894642Y-55241071D01*
X117037500Y-55312500D01*
X117751785Y-56241071D02*
X117751785Y-55241071D01*
X117751785Y-55383928D02*
X117823214Y-55312500D01*
X117966071Y-55241071D01*
X118180357Y-55241071D01*
X118323214Y-55312500D01*
X118394642Y-55455357D01*
X118394642Y-56241071D01*
X118394642Y-55455357D02*
X118466071Y-55312500D01*
X118608928Y-55241071D01*
X118823214Y-55241071D01*
X118966071Y-55312500D01*
X119037500Y-55455357D01*
X119037500Y-56241071D01*
X119751785Y-56241071D02*
X119751785Y-55241071D01*
X119751785Y-54741071D02*
X119680357Y-54812500D01*
X119751785Y-54883928D01*
X119823214Y-54812500D01*
X119751785Y-54741071D01*
X119751785Y-54883928D01*
X121108928Y-56169642D02*
X120966071Y-56241071D01*
X120680357Y-56241071D01*
X120537500Y-56169642D01*
X120466071Y-56098214D01*
X120394642Y-55955357D01*
X120394642Y-55526785D01*
X120466071Y-55383928D01*
X120537500Y-55312500D01*
X120680357Y-55241071D01*
X120966071Y-55241071D01*
X121108928Y-55312500D01*
X121751785Y-56241071D02*
X121751785Y-54741071D01*
X122394642Y-56241071D02*
X122394642Y-55455357D01*
X122323214Y-55312500D01*
X122180357Y-55241071D01*
X121966071Y-55241071D01*
X121823214Y-55312500D01*
X121751785Y-55383928D01*
X123751785Y-56241071D02*
X123751785Y-55455357D01*
X123680357Y-55312500D01*
X123537500Y-55241071D01*
X123251785Y-55241071D01*
X123108928Y-55312500D01*
X123751785Y-56169642D02*
X123608928Y-56241071D01*
X123251785Y-56241071D01*
X123108928Y-56169642D01*
X123037500Y-56026785D01*
X123037500Y-55883928D01*
X123108928Y-55741071D01*
X123251785Y-55669642D01*
X123608928Y-55669642D01*
X123751785Y-55598214D01*
X125108928Y-55241071D02*
X125108928Y-56241071D01*
X124466071Y-55241071D02*
X124466071Y-56026785D01*
X124537500Y-56169642D01*
X124680357Y-56241071D01*
X124894642Y-56241071D01*
X125037500Y-56169642D01*
X125108928Y-56098214D01*
X126466071Y-56241071D02*
X126466071Y-54741071D01*
X126466071Y-56169642D02*
X126323214Y-56241071D01*
X126037500Y-56241071D01*
X125894642Y-56169642D01*
X125823214Y-56098214D01*
X125751785Y-55955357D01*
X125751785Y-55526785D01*
X125823214Y-55383928D01*
X125894642Y-55312500D01*
X126037500Y-55241071D01*
X126323214Y-55241071D01*
X126466071Y-55312500D01*
D12*
G36*
X106655577Y-133853116D02*
G01*
X106653135Y-133855558D01*
X106650693Y-133853116D01*
X106653135Y-133850673D01*
X106655577Y-133853116D01*
G37*
X106655577Y-133853116D02*
X106653135Y-133855558D01*
X106650693Y-133853116D01*
X106653135Y-133850673D01*
X106655577Y-133853116D01*
G36*
X109542706Y-128376010D02*
G01*
X109549167Y-128388893D01*
X109559756Y-128410033D01*
X109574353Y-128439191D01*
X109592839Y-128476126D01*
X109615092Y-128520599D01*
X109640994Y-128572369D01*
X109670423Y-128631197D01*
X109703261Y-128696841D01*
X109739386Y-128769062D01*
X109778678Y-128847620D01*
X109821018Y-128932275D01*
X109866286Y-129022786D01*
X109914361Y-129118914D01*
X109965123Y-129220418D01*
X110018452Y-129327058D01*
X110074228Y-129438594D01*
X110132332Y-129554786D01*
X110192642Y-129675394D01*
X110255039Y-129800177D01*
X110319403Y-129928896D01*
X110385613Y-130061310D01*
X110453550Y-130197180D01*
X110523094Y-130336264D01*
X110594124Y-130478324D01*
X110666520Y-130623118D01*
X110740162Y-130770407D01*
X110814930Y-130919951D01*
X110838718Y-130967529D01*
X112136117Y-133562481D01*
X111772203Y-133562481D01*
X110658515Y-131334729D01*
X110588965Y-131195614D01*
X110520501Y-131058692D01*
X110453255Y-130924222D01*
X110387355Y-130792463D01*
X110322933Y-130663676D01*
X110260118Y-130538120D01*
X110199039Y-130416053D01*
X110139828Y-130297736D01*
X110082614Y-130183428D01*
X110027526Y-130073389D01*
X109974695Y-129967877D01*
X109924251Y-129867152D01*
X109876324Y-129771474D01*
X109831044Y-129681102D01*
X109788541Y-129596296D01*
X109748944Y-129517315D01*
X109712384Y-129444418D01*
X109678991Y-129377865D01*
X109648894Y-129317915D01*
X109622224Y-129264828D01*
X109599111Y-129218863D01*
X109579684Y-129180279D01*
X109564074Y-129149337D01*
X109552410Y-129126295D01*
X109544823Y-129111413D01*
X109541443Y-129104950D01*
X109541273Y-129104682D01*
X109538889Y-129108864D01*
X109532268Y-129121527D01*
X109521542Y-129142413D01*
X109506840Y-129171262D01*
X109488291Y-129207816D01*
X109466026Y-129251817D01*
X109440174Y-129303005D01*
X109410866Y-129361123D01*
X109378231Y-129425912D01*
X109342399Y-129497112D01*
X109303500Y-129574466D01*
X109261663Y-129657714D01*
X109217020Y-129746599D01*
X109169698Y-129840861D01*
X109119829Y-129940242D01*
X109067542Y-130044483D01*
X109012967Y-130153326D01*
X108956234Y-130266513D01*
X108897472Y-130383783D01*
X108836812Y-130504880D01*
X108774384Y-130629543D01*
X108710316Y-130757516D01*
X108644740Y-130888538D01*
X108577785Y-131022352D01*
X108509580Y-131158699D01*
X108440256Y-131297319D01*
X108422699Y-131332433D01*
X107307678Y-133562481D01*
X106943771Y-133562481D01*
X108241719Y-130966578D01*
X108316831Y-130816359D01*
X108390854Y-130668325D01*
X108463669Y-130522716D01*
X108535156Y-130379771D01*
X108605195Y-130239730D01*
X108673665Y-130102834D01*
X108740447Y-129969322D01*
X108805420Y-129839433D01*
X108868466Y-129713408D01*
X108929462Y-129591487D01*
X108988290Y-129473910D01*
X109044830Y-129360915D01*
X109098961Y-129252744D01*
X109150563Y-129149636D01*
X109199516Y-129051831D01*
X109245701Y-128959568D01*
X109288996Y-128873088D01*
X109329283Y-128792631D01*
X109366441Y-128718436D01*
X109400350Y-128650743D01*
X109430890Y-128589792D01*
X109457941Y-128535823D01*
X109481382Y-128489076D01*
X109501095Y-128449790D01*
X109516958Y-128418206D01*
X109528852Y-128394563D01*
X109536656Y-128379102D01*
X109540252Y-128372061D01*
X109540494Y-128371626D01*
X109542706Y-128376010D01*
G37*
X109542706Y-128376010D02*
X109549167Y-128388893D01*
X109559756Y-128410033D01*
X109574353Y-128439191D01*
X109592839Y-128476126D01*
X109615092Y-128520599D01*
X109640994Y-128572369D01*
X109670423Y-128631197D01*
X109703261Y-128696841D01*
X109739386Y-128769062D01*
X109778678Y-128847620D01*
X109821018Y-128932275D01*
X109866286Y-129022786D01*
X109914361Y-129118914D01*
X109965123Y-129220418D01*
X110018452Y-129327058D01*
X110074228Y-129438594D01*
X110132332Y-129554786D01*
X110192642Y-129675394D01*
X110255039Y-129800177D01*
X110319403Y-129928896D01*
X110385613Y-130061310D01*
X110453550Y-130197180D01*
X110523094Y-130336264D01*
X110594124Y-130478324D01*
X110666520Y-130623118D01*
X110740162Y-130770407D01*
X110814930Y-130919951D01*
X110838718Y-130967529D01*
X112136117Y-133562481D01*
X111772203Y-133562481D01*
X110658515Y-131334729D01*
X110588965Y-131195614D01*
X110520501Y-131058692D01*
X110453255Y-130924222D01*
X110387355Y-130792463D01*
X110322933Y-130663676D01*
X110260118Y-130538120D01*
X110199039Y-130416053D01*
X110139828Y-130297736D01*
X110082614Y-130183428D01*
X110027526Y-130073389D01*
X109974695Y-129967877D01*
X109924251Y-129867152D01*
X109876324Y-129771474D01*
X109831044Y-129681102D01*
X109788541Y-129596296D01*
X109748944Y-129517315D01*
X109712384Y-129444418D01*
X109678991Y-129377865D01*
X109648894Y-129317915D01*
X109622224Y-129264828D01*
X109599111Y-129218863D01*
X109579684Y-129180279D01*
X109564074Y-129149337D01*
X109552410Y-129126295D01*
X109544823Y-129111413D01*
X109541443Y-129104950D01*
X109541273Y-129104682D01*
X109538889Y-129108864D01*
X109532268Y-129121527D01*
X109521542Y-129142413D01*
X109506840Y-129171262D01*
X109488291Y-129207816D01*
X109466026Y-129251817D01*
X109440174Y-129303005D01*
X109410866Y-129361123D01*
X109378231Y-129425912D01*
X109342399Y-129497112D01*
X109303500Y-129574466D01*
X109261663Y-129657714D01*
X109217020Y-129746599D01*
X109169698Y-129840861D01*
X109119829Y-129940242D01*
X109067542Y-130044483D01*
X109012967Y-130153326D01*
X108956234Y-130266513D01*
X108897472Y-130383783D01*
X108836812Y-130504880D01*
X108774384Y-130629543D01*
X108710316Y-130757516D01*
X108644740Y-130888538D01*
X108577785Y-131022352D01*
X108509580Y-131158699D01*
X108440256Y-131297319D01*
X108422699Y-131332433D01*
X107307678Y-133562481D01*
X106943771Y-133562481D01*
X108241719Y-130966578D01*
X108316831Y-130816359D01*
X108390854Y-130668325D01*
X108463669Y-130522716D01*
X108535156Y-130379771D01*
X108605195Y-130239730D01*
X108673665Y-130102834D01*
X108740447Y-129969322D01*
X108805420Y-129839433D01*
X108868466Y-129713408D01*
X108929462Y-129591487D01*
X108988290Y-129473910D01*
X109044830Y-129360915D01*
X109098961Y-129252744D01*
X109150563Y-129149636D01*
X109199516Y-129051831D01*
X109245701Y-128959568D01*
X109288996Y-128873088D01*
X109329283Y-128792631D01*
X109366441Y-128718436D01*
X109400350Y-128650743D01*
X109430890Y-128589792D01*
X109457941Y-128535823D01*
X109481382Y-128489076D01*
X109501095Y-128449790D01*
X109516958Y-128418206D01*
X109528852Y-128394563D01*
X109536656Y-128379102D01*
X109540252Y-128372061D01*
X109540494Y-128371626D01*
X109542706Y-128376010D01*
G36*
X110592917Y-131447445D02*
G01*
X110660577Y-131582727D01*
X110727133Y-131715816D01*
X110792453Y-131846444D01*
X110856402Y-131974344D01*
X110918848Y-132099249D01*
X110979657Y-132220894D01*
X111038696Y-132339010D01*
X111095832Y-132453330D01*
X111150931Y-132563589D01*
X111203861Y-132669519D01*
X111254487Y-132770853D01*
X111302677Y-132867325D01*
X111348298Y-132958667D01*
X111391215Y-133044613D01*
X111431296Y-133124896D01*
X111468408Y-133199248D01*
X111502417Y-133267404D01*
X111533189Y-133329095D01*
X111560593Y-133384056D01*
X111584493Y-133432020D01*
X111604758Y-133472719D01*
X111621254Y-133505887D01*
X111633847Y-133531256D01*
X111642405Y-133548561D01*
X111646793Y-133557534D01*
X111647383Y-133558818D01*
X111642741Y-133559647D01*
X111629402Y-133560411D01*
X111608440Y-133561087D01*
X111580928Y-133561654D01*
X111547938Y-133562090D01*
X111510544Y-133562372D01*
X111469818Y-133562480D01*
X111466925Y-133562481D01*
X111286195Y-133562481D01*
X110414289Y-131818673D01*
X110352812Y-131695733D01*
X110292442Y-131575028D01*
X110233324Y-131456851D01*
X110175605Y-131341493D01*
X110119432Y-131229250D01*
X110064952Y-131120412D01*
X110012311Y-131015273D01*
X109961658Y-130914126D01*
X109913137Y-130817264D01*
X109866897Y-130724979D01*
X109823084Y-130637565D01*
X109781844Y-130555313D01*
X109743326Y-130478518D01*
X109707674Y-130407471D01*
X109675038Y-130342466D01*
X109645562Y-130283795D01*
X109619394Y-130231751D01*
X109596681Y-130186628D01*
X109577570Y-130148717D01*
X109562207Y-130118312D01*
X109550739Y-130095706D01*
X109543313Y-130081191D01*
X109540077Y-130075060D01*
X109539942Y-130074866D01*
X109537610Y-130079186D01*
X109531058Y-130091953D01*
X109520432Y-130112873D01*
X109505881Y-130141654D01*
X109487550Y-130178002D01*
X109465586Y-130221625D01*
X109440136Y-130272230D01*
X109411348Y-130329524D01*
X109379367Y-130393214D01*
X109344341Y-130463008D01*
X109306416Y-130538613D01*
X109265739Y-130619735D01*
X109222458Y-130706083D01*
X109176719Y-130797362D01*
X109128668Y-130893281D01*
X109078453Y-130993547D01*
X109026221Y-131097866D01*
X108972117Y-131205946D01*
X108916290Y-131317494D01*
X108858886Y-131432217D01*
X108800051Y-131549823D01*
X108739933Y-131670018D01*
X108678678Y-131792510D01*
X108665596Y-131818673D01*
X107793690Y-133562481D01*
X107427344Y-133562481D01*
X108483033Y-131451108D01*
X109538721Y-129339735D01*
X110592917Y-131447445D01*
G37*
X110592917Y-131447445D02*
X110660577Y-131582727D01*
X110727133Y-131715816D01*
X110792453Y-131846444D01*
X110856402Y-131974344D01*
X110918848Y-132099249D01*
X110979657Y-132220894D01*
X111038696Y-132339010D01*
X111095832Y-132453330D01*
X111150931Y-132563589D01*
X111203861Y-132669519D01*
X111254487Y-132770853D01*
X111302677Y-132867325D01*
X111348298Y-132958667D01*
X111391215Y-133044613D01*
X111431296Y-133124896D01*
X111468408Y-133199248D01*
X111502417Y-133267404D01*
X111533189Y-133329095D01*
X111560593Y-133384056D01*
X111584493Y-133432020D01*
X111604758Y-133472719D01*
X111621254Y-133505887D01*
X111633847Y-133531256D01*
X111642405Y-133548561D01*
X111646793Y-133557534D01*
X111647383Y-133558818D01*
X111642741Y-133559647D01*
X111629402Y-133560411D01*
X111608440Y-133561087D01*
X111580928Y-133561654D01*
X111547938Y-133562090D01*
X111510544Y-133562372D01*
X111469818Y-133562480D01*
X111466925Y-133562481D01*
X111286195Y-133562481D01*
X110414289Y-131818673D01*
X110352812Y-131695733D01*
X110292442Y-131575028D01*
X110233324Y-131456851D01*
X110175605Y-131341493D01*
X110119432Y-131229250D01*
X110064952Y-131120412D01*
X110012311Y-131015273D01*
X109961658Y-130914126D01*
X109913137Y-130817264D01*
X109866897Y-130724979D01*
X109823084Y-130637565D01*
X109781844Y-130555313D01*
X109743326Y-130478518D01*
X109707674Y-130407471D01*
X109675038Y-130342466D01*
X109645562Y-130283795D01*
X109619394Y-130231751D01*
X109596681Y-130186628D01*
X109577570Y-130148717D01*
X109562207Y-130118312D01*
X109550739Y-130095706D01*
X109543313Y-130081191D01*
X109540077Y-130075060D01*
X109539942Y-130074866D01*
X109537610Y-130079186D01*
X109531058Y-130091953D01*
X109520432Y-130112873D01*
X109505881Y-130141654D01*
X109487550Y-130178002D01*
X109465586Y-130221625D01*
X109440136Y-130272230D01*
X109411348Y-130329524D01*
X109379367Y-130393214D01*
X109344341Y-130463008D01*
X109306416Y-130538613D01*
X109265739Y-130619735D01*
X109222458Y-130706083D01*
X109176719Y-130797362D01*
X109128668Y-130893281D01*
X109078453Y-130993547D01*
X109026221Y-131097866D01*
X108972117Y-131205946D01*
X108916290Y-131317494D01*
X108858886Y-131432217D01*
X108800051Y-131549823D01*
X108739933Y-131670018D01*
X108678678Y-131792510D01*
X108665596Y-131818673D01*
X107793690Y-133562481D01*
X107427344Y-133562481D01*
X108483033Y-131451108D01*
X109538721Y-129339735D01*
X110592917Y-131447445D01*
G36*
X109344060Y-131475754D02*
G01*
X109372769Y-131533065D01*
X109400270Y-131587765D01*
X109426249Y-131639237D01*
X109450388Y-131686865D01*
X109472372Y-131730031D01*
X109491884Y-131768117D01*
X109508608Y-131800507D01*
X109522229Y-131826582D01*
X109532428Y-131845726D01*
X109538892Y-131857322D01*
X109541278Y-131860786D01*
X109543943Y-131856172D01*
X109550643Y-131843444D01*
X109561059Y-131823236D01*
X109574872Y-131796178D01*
X109591762Y-131762902D01*
X109611409Y-131724041D01*
X109633495Y-131680226D01*
X109657699Y-131632089D01*
X109683703Y-131580261D01*
X109711186Y-131525375D01*
X109735302Y-131477127D01*
X109763755Y-131420212D01*
X109790977Y-131365868D01*
X109816651Y-131314721D01*
X109840459Y-131267398D01*
X109862086Y-131224525D01*
X109881212Y-131186729D01*
X109897523Y-131154637D01*
X109910699Y-131128876D01*
X109920425Y-131110073D01*
X109926383Y-131098855D01*
X109928249Y-131095750D01*
X109930612Y-131100062D01*
X109937165Y-131112765D01*
X109947735Y-131133511D01*
X109962146Y-131161951D01*
X109980224Y-131197739D01*
X110001794Y-131240524D01*
X110026680Y-131289960D01*
X110054709Y-131345697D01*
X110085705Y-131407389D01*
X110119493Y-131474686D01*
X110155899Y-131547240D01*
X110194749Y-131624703D01*
X110235866Y-131706726D01*
X110279076Y-131792963D01*
X110324206Y-131883064D01*
X110371078Y-131976680D01*
X110419520Y-132073465D01*
X110469356Y-132173070D01*
X110520411Y-132275146D01*
X110547398Y-132329116D01*
X111164075Y-133562481D01*
X110800151Y-133562481D01*
X110365443Y-132693019D01*
X110322185Y-132606524D01*
X110280082Y-132522385D01*
X110239342Y-132441018D01*
X110200174Y-132362838D01*
X110162787Y-132288259D01*
X110127389Y-132217696D01*
X110094188Y-132151565D01*
X110063394Y-132090279D01*
X110035215Y-132034253D01*
X110009858Y-131983903D01*
X109987534Y-131939644D01*
X109968450Y-131901889D01*
X109952815Y-131871054D01*
X109940838Y-131847553D01*
X109932727Y-131831802D01*
X109928690Y-131824214D01*
X109928266Y-131823558D01*
X109925766Y-131827826D01*
X109919223Y-131840213D01*
X109908953Y-131860098D01*
X109895269Y-131886858D01*
X109878489Y-131919868D01*
X109858927Y-131958507D01*
X109836899Y-132002152D01*
X109812720Y-132050180D01*
X109786705Y-132101967D01*
X109759171Y-132156891D01*
X109732860Y-132209471D01*
X109539922Y-132595385D01*
X109347015Y-132209471D01*
X109318368Y-132152218D01*
X109290951Y-132097530D01*
X109265081Y-132046031D01*
X109241071Y-131998343D01*
X109219239Y-131955091D01*
X109199898Y-131916896D01*
X109183365Y-131884382D01*
X109169954Y-131858171D01*
X109159982Y-131838886D01*
X109153763Y-131827151D01*
X109151629Y-131823558D01*
X109149232Y-131827859D01*
X109142680Y-131840485D01*
X109132180Y-131861022D01*
X109117941Y-131889055D01*
X109100173Y-131924169D01*
X109079083Y-131965948D01*
X109054880Y-132013980D01*
X109027773Y-132067848D01*
X108997970Y-132127138D01*
X108965679Y-132191435D01*
X108931110Y-132260324D01*
X108894471Y-132333390D01*
X108855971Y-132410220D01*
X108815817Y-132490397D01*
X108774219Y-132573507D01*
X108731385Y-132659136D01*
X108714443Y-132693019D01*
X108279734Y-133562481D01*
X108097771Y-133562481D01*
X108056711Y-133562386D01*
X108018906Y-133562116D01*
X107985423Y-133561693D01*
X107957334Y-133561138D01*
X107935706Y-133560472D01*
X107921610Y-133559718D01*
X107916114Y-133558896D01*
X107916078Y-133558818D01*
X107918259Y-133554198D01*
X107924637Y-133541192D01*
X107935040Y-133520149D01*
X107949293Y-133491418D01*
X107967221Y-133455349D01*
X107988650Y-133412291D01*
X108013406Y-133362593D01*
X108041314Y-133306605D01*
X108072201Y-133244677D01*
X108105891Y-133177156D01*
X108142210Y-133104394D01*
X108180984Y-133026740D01*
X108222039Y-132944542D01*
X108265201Y-132858150D01*
X108310294Y-132767913D01*
X108357144Y-132674182D01*
X108405578Y-132577305D01*
X108455421Y-132477632D01*
X108506499Y-132375511D01*
X108533370Y-132321797D01*
X109150390Y-131088439D01*
X109344060Y-131475754D01*
G37*
X109344060Y-131475754D02*
X109372769Y-131533065D01*
X109400270Y-131587765D01*
X109426249Y-131639237D01*
X109450388Y-131686865D01*
X109472372Y-131730031D01*
X109491884Y-131768117D01*
X109508608Y-131800507D01*
X109522229Y-131826582D01*
X109532428Y-131845726D01*
X109538892Y-131857322D01*
X109541278Y-131860786D01*
X109543943Y-131856172D01*
X109550643Y-131843444D01*
X109561059Y-131823236D01*
X109574872Y-131796178D01*
X109591762Y-131762902D01*
X109611409Y-131724041D01*
X109633495Y-131680226D01*
X109657699Y-131632089D01*
X109683703Y-131580261D01*
X109711186Y-131525375D01*
X109735302Y-131477127D01*
X109763755Y-131420212D01*
X109790977Y-131365868D01*
X109816651Y-131314721D01*
X109840459Y-131267398D01*
X109862086Y-131224525D01*
X109881212Y-131186729D01*
X109897523Y-131154637D01*
X109910699Y-131128876D01*
X109920425Y-131110073D01*
X109926383Y-131098855D01*
X109928249Y-131095750D01*
X109930612Y-131100062D01*
X109937165Y-131112765D01*
X109947735Y-131133511D01*
X109962146Y-131161951D01*
X109980224Y-131197739D01*
X110001794Y-131240524D01*
X110026680Y-131289960D01*
X110054709Y-131345697D01*
X110085705Y-131407389D01*
X110119493Y-131474686D01*
X110155899Y-131547240D01*
X110194749Y-131624703D01*
X110235866Y-131706726D01*
X110279076Y-131792963D01*
X110324206Y-131883064D01*
X110371078Y-131976680D01*
X110419520Y-132073465D01*
X110469356Y-132173070D01*
X110520411Y-132275146D01*
X110547398Y-132329116D01*
X111164075Y-133562481D01*
X110800151Y-133562481D01*
X110365443Y-132693019D01*
X110322185Y-132606524D01*
X110280082Y-132522385D01*
X110239342Y-132441018D01*
X110200174Y-132362838D01*
X110162787Y-132288259D01*
X110127389Y-132217696D01*
X110094188Y-132151565D01*
X110063394Y-132090279D01*
X110035215Y-132034253D01*
X110009858Y-131983903D01*
X109987534Y-131939644D01*
X109968450Y-131901889D01*
X109952815Y-131871054D01*
X109940838Y-131847553D01*
X109932727Y-131831802D01*
X109928690Y-131824214D01*
X109928266Y-131823558D01*
X109925766Y-131827826D01*
X109919223Y-131840213D01*
X109908953Y-131860098D01*
X109895269Y-131886858D01*
X109878489Y-131919868D01*
X109858927Y-131958507D01*
X109836899Y-132002152D01*
X109812720Y-132050180D01*
X109786705Y-132101967D01*
X109759171Y-132156891D01*
X109732860Y-132209471D01*
X109539922Y-132595385D01*
X109347015Y-132209471D01*
X109318368Y-132152218D01*
X109290951Y-132097530D01*
X109265081Y-132046031D01*
X109241071Y-131998343D01*
X109219239Y-131955091D01*
X109199898Y-131916896D01*
X109183365Y-131884382D01*
X109169954Y-131858171D01*
X109159982Y-131838886D01*
X109153763Y-131827151D01*
X109151629Y-131823558D01*
X109149232Y-131827859D01*
X109142680Y-131840485D01*
X109132180Y-131861022D01*
X109117941Y-131889055D01*
X109100173Y-131924169D01*
X109079083Y-131965948D01*
X109054880Y-132013980D01*
X109027773Y-132067848D01*
X108997970Y-132127138D01*
X108965679Y-132191435D01*
X108931110Y-132260324D01*
X108894471Y-132333390D01*
X108855971Y-132410220D01*
X108815817Y-132490397D01*
X108774219Y-132573507D01*
X108731385Y-132659136D01*
X108714443Y-132693019D01*
X108279734Y-133562481D01*
X108097771Y-133562481D01*
X108056711Y-133562386D01*
X108018906Y-133562116D01*
X107985423Y-133561693D01*
X107957334Y-133561138D01*
X107935706Y-133560472D01*
X107921610Y-133559718D01*
X107916114Y-133558896D01*
X107916078Y-133558818D01*
X107918259Y-133554198D01*
X107924637Y-133541192D01*
X107935040Y-133520149D01*
X107949293Y-133491418D01*
X107967221Y-133455349D01*
X107988650Y-133412291D01*
X108013406Y-133362593D01*
X108041314Y-133306605D01*
X108072201Y-133244677D01*
X108105891Y-133177156D01*
X108142210Y-133104394D01*
X108180984Y-133026740D01*
X108222039Y-132944542D01*
X108265201Y-132858150D01*
X108310294Y-132767913D01*
X108357144Y-132674182D01*
X108405578Y-132577305D01*
X108455421Y-132477632D01*
X108506499Y-132375511D01*
X108533370Y-132321797D01*
X109150390Y-131088439D01*
X109344060Y-131475754D01*
G36*
X110301333Y-132809032D02*
G01*
X110341428Y-132889235D01*
X110380328Y-132967074D01*
X110417810Y-133042102D01*
X110453648Y-133113870D01*
X110487621Y-133181929D01*
X110519505Y-133245829D01*
X110549075Y-133305124D01*
X110576108Y-133359362D01*
X110600381Y-133408097D01*
X110621670Y-133450880D01*
X110639751Y-133487261D01*
X110654400Y-133516792D01*
X110665395Y-133539024D01*
X110672511Y-133553508D01*
X110675525Y-133559796D01*
X110675616Y-133560032D01*
X110670910Y-133560587D01*
X110657511Y-133561097D01*
X110636492Y-133561549D01*
X110608930Y-133561928D01*
X110575898Y-133562220D01*
X110538473Y-133562408D01*
X110497729Y-133562481D01*
X110314146Y-133562481D01*
X110122443Y-133179039D01*
X110093886Y-133121973D01*
X110066559Y-133067475D01*
X110040781Y-133016170D01*
X110016866Y-132968683D01*
X109995132Y-132925638D01*
X109975895Y-132887661D01*
X109959472Y-132855376D01*
X109946179Y-132829408D01*
X109936333Y-132810382D01*
X109930249Y-132798924D01*
X109928259Y-132795596D01*
X109925757Y-132799864D01*
X109919217Y-132812250D01*
X109908957Y-132832128D01*
X109895293Y-132858869D01*
X109878543Y-132891849D01*
X109859023Y-132930439D01*
X109837051Y-132974014D01*
X109812945Y-133021945D01*
X109787020Y-133073608D01*
X109759595Y-133128374D01*
X109735302Y-133176973D01*
X109706819Y-133233949D01*
X109679545Y-133288400D01*
X109653801Y-133339695D01*
X109629906Y-133387200D01*
X109608179Y-133430285D01*
X109588940Y-133468317D01*
X109572509Y-133500665D01*
X109559204Y-133526697D01*
X109549346Y-133545782D01*
X109543254Y-133557286D01*
X109541278Y-133560632D01*
X109538621Y-133556706D01*
X109531929Y-133544650D01*
X109521519Y-133525081D01*
X109507708Y-133498617D01*
X109490811Y-133465876D01*
X109471145Y-133427474D01*
X109449025Y-133384028D01*
X109424769Y-133336157D01*
X109398692Y-133284478D01*
X109371111Y-133229607D01*
X109344057Y-133175595D01*
X109150384Y-132788274D01*
X108956851Y-133175377D01*
X108763317Y-133562481D01*
X108399378Y-133562481D01*
X108773589Y-132813914D01*
X108813687Y-132733711D01*
X108852608Y-132655879D01*
X108890127Y-132580867D01*
X108926021Y-132509122D01*
X108960064Y-132441093D01*
X108992031Y-132377228D01*
X109021700Y-132317975D01*
X109048843Y-132263783D01*
X109073238Y-132215101D01*
X109094660Y-132172376D01*
X109112883Y-132136057D01*
X109127684Y-132106592D01*
X109138838Y-132084430D01*
X109146120Y-132070018D01*
X109149306Y-132063806D01*
X109149432Y-132063587D01*
X109151806Y-132067590D01*
X109158225Y-132079718D01*
X109168378Y-132099353D01*
X109181951Y-132125879D01*
X109198632Y-132158675D01*
X109218107Y-132197126D01*
X109240064Y-132240614D01*
X109264190Y-132288520D01*
X109290171Y-132340227D01*
X109317695Y-132395117D01*
X109344893Y-132449459D01*
X109538721Y-132837091D01*
X109732886Y-132448786D01*
X109927051Y-132060480D01*
X110301333Y-132809032D01*
G37*
X110301333Y-132809032D02*
X110341428Y-132889235D01*
X110380328Y-132967074D01*
X110417810Y-133042102D01*
X110453648Y-133113870D01*
X110487621Y-133181929D01*
X110519505Y-133245829D01*
X110549075Y-133305124D01*
X110576108Y-133359362D01*
X110600381Y-133408097D01*
X110621670Y-133450880D01*
X110639751Y-133487261D01*
X110654400Y-133516792D01*
X110665395Y-133539024D01*
X110672511Y-133553508D01*
X110675525Y-133559796D01*
X110675616Y-133560032D01*
X110670910Y-133560587D01*
X110657511Y-133561097D01*
X110636492Y-133561549D01*
X110608930Y-133561928D01*
X110575898Y-133562220D01*
X110538473Y-133562408D01*
X110497729Y-133562481D01*
X110314146Y-133562481D01*
X110122443Y-133179039D01*
X110093886Y-133121973D01*
X110066559Y-133067475D01*
X110040781Y-133016170D01*
X110016866Y-132968683D01*
X109995132Y-132925638D01*
X109975895Y-132887661D01*
X109959472Y-132855376D01*
X109946179Y-132829408D01*
X109936333Y-132810382D01*
X109930249Y-132798924D01*
X109928259Y-132795596D01*
X109925757Y-132799864D01*
X109919217Y-132812250D01*
X109908957Y-132832128D01*
X109895293Y-132858869D01*
X109878543Y-132891849D01*
X109859023Y-132930439D01*
X109837051Y-132974014D01*
X109812945Y-133021945D01*
X109787020Y-133073608D01*
X109759595Y-133128374D01*
X109735302Y-133176973D01*
X109706819Y-133233949D01*
X109679545Y-133288400D01*
X109653801Y-133339695D01*
X109629906Y-133387200D01*
X109608179Y-133430285D01*
X109588940Y-133468317D01*
X109572509Y-133500665D01*
X109559204Y-133526697D01*
X109549346Y-133545782D01*
X109543254Y-133557286D01*
X109541278Y-133560632D01*
X109538621Y-133556706D01*
X109531929Y-133544650D01*
X109521519Y-133525081D01*
X109507708Y-133498617D01*
X109490811Y-133465876D01*
X109471145Y-133427474D01*
X109449025Y-133384028D01*
X109424769Y-133336157D01*
X109398692Y-133284478D01*
X109371111Y-133229607D01*
X109344057Y-133175595D01*
X109150384Y-132788274D01*
X108956851Y-133175377D01*
X108763317Y-133562481D01*
X108399378Y-133562481D01*
X108773589Y-132813914D01*
X108813687Y-132733711D01*
X108852608Y-132655879D01*
X108890127Y-132580867D01*
X108926021Y-132509122D01*
X108960064Y-132441093D01*
X108992031Y-132377228D01*
X109021700Y-132317975D01*
X109048843Y-132263783D01*
X109073238Y-132215101D01*
X109094660Y-132172376D01*
X109112883Y-132136057D01*
X109127684Y-132106592D01*
X109138838Y-132084430D01*
X109146120Y-132070018D01*
X109149306Y-132063806D01*
X109149432Y-132063587D01*
X109151806Y-132067590D01*
X109158225Y-132079718D01*
X109168378Y-132099353D01*
X109181951Y-132125879D01*
X109198632Y-132158675D01*
X109218107Y-132197126D01*
X109240064Y-132240614D01*
X109264190Y-132288520D01*
X109290171Y-132340227D01*
X109317695Y-132395117D01*
X109344893Y-132449459D01*
X109538721Y-132837091D01*
X109732886Y-132448786D01*
X109927051Y-132060480D01*
X110301333Y-132809032D01*
G36*
X132693833Y-86825666D02*
G01*
X132672666Y-86846833D01*
X132651500Y-86825666D01*
X132672666Y-86804500D01*
X132693833Y-86825666D01*
G37*
X132693833Y-86825666D02*
X132672666Y-86846833D01*
X132651500Y-86825666D01*
X132672666Y-86804500D01*
X132693833Y-86825666D01*
G36*
X127522636Y-89730390D02*
G01*
X127572510Y-89837511D01*
X127651203Y-90009425D01*
X127755905Y-90239856D01*
X127883807Y-90522525D01*
X128032100Y-90851157D01*
X128197974Y-91219474D01*
X128378621Y-91621200D01*
X128571231Y-92050058D01*
X128772994Y-92499771D01*
X128981101Y-92964062D01*
X129192744Y-93436653D01*
X129405113Y-93911269D01*
X129615399Y-94381633D01*
X129820792Y-94841467D01*
X130018483Y-95284494D01*
X130205663Y-95704438D01*
X130379523Y-96095022D01*
X130537253Y-96449968D01*
X130676044Y-96763001D01*
X130793088Y-97027843D01*
X130885573Y-97238217D01*
X130950693Y-97387846D01*
X130985636Y-97470454D01*
X130990819Y-97484277D01*
X130993147Y-97513652D01*
X130973472Y-97533773D01*
X130919502Y-97545970D01*
X130818946Y-97551568D01*
X130659513Y-97551895D01*
X130428913Y-97548279D01*
X130402777Y-97547777D01*
X129794554Y-97536000D01*
X129405458Y-96647000D01*
X129016361Y-95758000D01*
X125858427Y-95758000D01*
X125451904Y-96647000D01*
X125045382Y-97536000D01*
X124426029Y-97547706D01*
X123806676Y-97559413D01*
X123968758Y-97209040D01*
X124022092Y-97094384D01*
X124105341Y-96916265D01*
X124215534Y-96680994D01*
X124349701Y-96394886D01*
X124504872Y-96064253D01*
X124678076Y-95695408D01*
X124866344Y-95294664D01*
X125066705Y-94868334D01*
X125164928Y-94659398D01*
X126343833Y-94659398D01*
X126384313Y-94664522D01*
X126498345Y-94669127D01*
X126674812Y-94673020D01*
X126902601Y-94676008D01*
X127170596Y-94677897D01*
X127444500Y-94678500D01*
X127739778Y-94678014D01*
X128005127Y-94676646D01*
X128229432Y-94674529D01*
X128401576Y-94671796D01*
X128510445Y-94668580D01*
X128545166Y-94665294D01*
X128528633Y-94616774D01*
X128482419Y-94504078D01*
X128411605Y-94338512D01*
X128321272Y-94131379D01*
X128216498Y-93893985D01*
X128102363Y-93637633D01*
X127983949Y-93373627D01*
X127866335Y-93113274D01*
X127754600Y-92867876D01*
X127653826Y-92648737D01*
X127569091Y-92467164D01*
X127505477Y-92334459D01*
X127468062Y-92261927D01*
X127460560Y-92251754D01*
X127438131Y-92289856D01*
X127385950Y-92393745D01*
X127309261Y-92552111D01*
X127213309Y-92753647D01*
X127103339Y-92987044D01*
X126984597Y-93240994D01*
X126862328Y-93504188D01*
X126741776Y-93765318D01*
X126628187Y-94013076D01*
X126526805Y-94236153D01*
X126442877Y-94423241D01*
X126381647Y-94563031D01*
X126348360Y-94644216D01*
X126343833Y-94659398D01*
X125164928Y-94659398D01*
X125276188Y-94422732D01*
X125491824Y-93964170D01*
X125710642Y-93498962D01*
X125929672Y-93033420D01*
X126145943Y-92573858D01*
X126356486Y-92126588D01*
X126558330Y-91697925D01*
X126748505Y-91294180D01*
X126924041Y-90921667D01*
X127081967Y-90586699D01*
X127219312Y-90295589D01*
X127333108Y-90054650D01*
X127420383Y-89870196D01*
X127478168Y-89748539D01*
X127503491Y-89695992D01*
X127504389Y-89694340D01*
X127522636Y-89730390D01*
G37*
X127522636Y-89730390D02*
X127572510Y-89837511D01*
X127651203Y-90009425D01*
X127755905Y-90239856D01*
X127883807Y-90522525D01*
X128032100Y-90851157D01*
X128197974Y-91219474D01*
X128378621Y-91621200D01*
X128571231Y-92050058D01*
X128772994Y-92499771D01*
X128981101Y-92964062D01*
X129192744Y-93436653D01*
X129405113Y-93911269D01*
X129615399Y-94381633D01*
X129820792Y-94841467D01*
X130018483Y-95284494D01*
X130205663Y-95704438D01*
X130379523Y-96095022D01*
X130537253Y-96449968D01*
X130676044Y-96763001D01*
X130793088Y-97027843D01*
X130885573Y-97238217D01*
X130950693Y-97387846D01*
X130985636Y-97470454D01*
X130990819Y-97484277D01*
X130993147Y-97513652D01*
X130973472Y-97533773D01*
X130919502Y-97545970D01*
X130818946Y-97551568D01*
X130659513Y-97551895D01*
X130428913Y-97548279D01*
X130402777Y-97547777D01*
X129794554Y-97536000D01*
X129405458Y-96647000D01*
X129016361Y-95758000D01*
X125858427Y-95758000D01*
X125451904Y-96647000D01*
X125045382Y-97536000D01*
X124426029Y-97547706D01*
X123806676Y-97559413D01*
X123968758Y-97209040D01*
X124022092Y-97094384D01*
X124105341Y-96916265D01*
X124215534Y-96680994D01*
X124349701Y-96394886D01*
X124504872Y-96064253D01*
X124678076Y-95695408D01*
X124866344Y-95294664D01*
X125066705Y-94868334D01*
X125164928Y-94659398D01*
X126343833Y-94659398D01*
X126384313Y-94664522D01*
X126498345Y-94669127D01*
X126674812Y-94673020D01*
X126902601Y-94676008D01*
X127170596Y-94677897D01*
X127444500Y-94678500D01*
X127739778Y-94678014D01*
X128005127Y-94676646D01*
X128229432Y-94674529D01*
X128401576Y-94671796D01*
X128510445Y-94668580D01*
X128545166Y-94665294D01*
X128528633Y-94616774D01*
X128482419Y-94504078D01*
X128411605Y-94338512D01*
X128321272Y-94131379D01*
X128216498Y-93893985D01*
X128102363Y-93637633D01*
X127983949Y-93373627D01*
X127866335Y-93113274D01*
X127754600Y-92867876D01*
X127653826Y-92648737D01*
X127569091Y-92467164D01*
X127505477Y-92334459D01*
X127468062Y-92261927D01*
X127460560Y-92251754D01*
X127438131Y-92289856D01*
X127385950Y-92393745D01*
X127309261Y-92552111D01*
X127213309Y-92753647D01*
X127103339Y-92987044D01*
X126984597Y-93240994D01*
X126862328Y-93504188D01*
X126741776Y-93765318D01*
X126628187Y-94013076D01*
X126526805Y-94236153D01*
X126442877Y-94423241D01*
X126381647Y-94563031D01*
X126348360Y-94644216D01*
X126343833Y-94659398D01*
X125164928Y-94659398D01*
X125276188Y-94422732D01*
X125491824Y-93964170D01*
X125710642Y-93498962D01*
X125929672Y-93033420D01*
X126145943Y-92573858D01*
X126356486Y-92126588D01*
X126558330Y-91697925D01*
X126748505Y-91294180D01*
X126924041Y-90921667D01*
X127081967Y-90586699D01*
X127219312Y-90295589D01*
X127333108Y-90054650D01*
X127420383Y-89870196D01*
X127478168Y-89748539D01*
X127503491Y-89695992D01*
X127504389Y-89694340D01*
X127522636Y-89730390D01*
G36*
X120321916Y-90119679D02*
G01*
X120634218Y-90127627D01*
X120928255Y-90137749D01*
X121190465Y-90149371D01*
X121407288Y-90161821D01*
X121565162Y-90174427D01*
X121645419Y-90185302D01*
X122075709Y-90317746D01*
X122450809Y-90513586D01*
X122769113Y-90771477D01*
X123029015Y-91090072D01*
X123228910Y-91468026D01*
X123255961Y-91535862D01*
X123316267Y-91754127D01*
X123356738Y-92024120D01*
X123375335Y-92314790D01*
X123370021Y-92595091D01*
X123340592Y-92825313D01*
X123218700Y-93210329D01*
X123023520Y-93559244D01*
X122761152Y-93865382D01*
X122437697Y-94122068D01*
X122059255Y-94322628D01*
X121924319Y-94375011D01*
X121786326Y-94419714D01*
X121649904Y-94452077D01*
X121494446Y-94474987D01*
X121299341Y-94491334D01*
X121043980Y-94504008D01*
X120988666Y-94506174D01*
X120353666Y-94530333D01*
X120342548Y-96043750D01*
X120331430Y-97557166D01*
X119189500Y-97557166D01*
X119189500Y-91164833D01*
X120332500Y-91164833D01*
X120332500Y-93493166D01*
X120681750Y-93492431D01*
X120894478Y-93483996D01*
X121119642Y-93462554D01*
X121309316Y-93432701D01*
X121313099Y-93431906D01*
X121544281Y-93373499D01*
X121719415Y-93302849D01*
X121867105Y-93205933D01*
X121979471Y-93105223D01*
X122155609Y-92875554D01*
X122257908Y-92605822D01*
X122285439Y-92355310D01*
X122255235Y-92034971D01*
X122160627Y-91765996D01*
X122000587Y-91547620D01*
X121774087Y-91379080D01*
X121480100Y-91259611D01*
X121117600Y-91188450D01*
X120685558Y-91164833D01*
X120332500Y-91164833D01*
X119189500Y-91164833D01*
X119189500Y-90095960D01*
X120321916Y-90119679D01*
G37*
X120321916Y-90119679D02*
X120634218Y-90127627D01*
X120928255Y-90137749D01*
X121190465Y-90149371D01*
X121407288Y-90161821D01*
X121565162Y-90174427D01*
X121645419Y-90185302D01*
X122075709Y-90317746D01*
X122450809Y-90513586D01*
X122769113Y-90771477D01*
X123029015Y-91090072D01*
X123228910Y-91468026D01*
X123255961Y-91535862D01*
X123316267Y-91754127D01*
X123356738Y-92024120D01*
X123375335Y-92314790D01*
X123370021Y-92595091D01*
X123340592Y-92825313D01*
X123218700Y-93210329D01*
X123023520Y-93559244D01*
X122761152Y-93865382D01*
X122437697Y-94122068D01*
X122059255Y-94322628D01*
X121924319Y-94375011D01*
X121786326Y-94419714D01*
X121649904Y-94452077D01*
X121494446Y-94474987D01*
X121299341Y-94491334D01*
X121043980Y-94504008D01*
X120988666Y-94506174D01*
X120353666Y-94530333D01*
X120342548Y-96043750D01*
X120331430Y-97557166D01*
X119189500Y-97557166D01*
X119189500Y-91164833D01*
X120332500Y-91164833D01*
X120332500Y-93493166D01*
X120681750Y-93492431D01*
X120894478Y-93483996D01*
X121119642Y-93462554D01*
X121309316Y-93432701D01*
X121313099Y-93431906D01*
X121544281Y-93373499D01*
X121719415Y-93302849D01*
X121867105Y-93205933D01*
X121979471Y-93105223D01*
X122155609Y-92875554D01*
X122257908Y-92605822D01*
X122285439Y-92355310D01*
X122255235Y-92034971D01*
X122160627Y-91765996D01*
X122000587Y-91547620D01*
X121774087Y-91379080D01*
X121480100Y-91259611D01*
X121117600Y-91188450D01*
X120685558Y-91164833D01*
X120332500Y-91164833D01*
X119189500Y-91164833D01*
X119189500Y-90095960D01*
X120321916Y-90119679D01*
G36*
X104214083Y-90119592D02*
G01*
X104622503Y-90131407D01*
X104958873Y-90146625D01*
X105235796Y-90167215D01*
X105465876Y-90195141D01*
X105661718Y-90232370D01*
X105835925Y-90280868D01*
X106001102Y-90342603D01*
X106169852Y-90419539D01*
X106185335Y-90427123D01*
X106533944Y-90642794D01*
X106820019Y-90913937D01*
X107041078Y-91236341D01*
X107194637Y-91605791D01*
X107278213Y-92018076D01*
X107293833Y-92307833D01*
X107255368Y-92736547D01*
X107143101Y-93132502D01*
X106961722Y-93488842D01*
X106715920Y-93798709D01*
X106410386Y-94055249D01*
X106049810Y-94251605D01*
X105932929Y-94297277D01*
X105811970Y-94347989D01*
X105733830Y-94395045D01*
X105716346Y-94420944D01*
X105742709Y-94463274D01*
X105813826Y-94566491D01*
X105924403Y-94723189D01*
X106069143Y-94925964D01*
X106242753Y-95167413D01*
X106439937Y-95440130D01*
X106655401Y-95736712D01*
X106754520Y-95872707D01*
X106980212Y-96182167D01*
X107193505Y-96474831D01*
X107388516Y-96742610D01*
X107559362Y-96977417D01*
X107700159Y-97171164D01*
X107805024Y-97315764D01*
X107868074Y-97403129D01*
X107879806Y-97419583D01*
X107976931Y-97557166D01*
X106595333Y-97556218D01*
X105537000Y-96034416D01*
X105273186Y-95656145D01*
X105052710Y-95342653D01*
X104871507Y-95088572D01*
X104725510Y-94888530D01*
X104610651Y-94737156D01*
X104522865Y-94629079D01*
X104458084Y-94558930D01*
X104412243Y-94521337D01*
X104383416Y-94510890D01*
X104288166Y-94509166D01*
X104288166Y-97557166D01*
X103145166Y-97557166D01*
X103145166Y-93548289D01*
X104288166Y-93548289D01*
X104700916Y-93522398D01*
X104908682Y-93503975D01*
X105111304Y-93476866D01*
X105275884Y-93445792D01*
X105325333Y-93432818D01*
X105618793Y-93311385D01*
X105860914Y-93142944D01*
X106037826Y-92937393D01*
X106051873Y-92914368D01*
X106110778Y-92805410D01*
X106146629Y-92706391D01*
X106165004Y-92590133D01*
X106171480Y-92429460D01*
X106172000Y-92329000D01*
X106158426Y-92057550D01*
X106112233Y-91847366D01*
X106025213Y-91678644D01*
X105889156Y-91531578D01*
X105817153Y-91472835D01*
X105631677Y-91356452D01*
X105413709Y-91271908D01*
X105147538Y-91214872D01*
X104817452Y-91181009D01*
X104743250Y-91176681D01*
X104288166Y-91152843D01*
X104288166Y-93548289D01*
X103145166Y-93548289D01*
X103145166Y-90093936D01*
X104214083Y-90119592D01*
G37*
X104214083Y-90119592D02*
X104622503Y-90131407D01*
X104958873Y-90146625D01*
X105235796Y-90167215D01*
X105465876Y-90195141D01*
X105661718Y-90232370D01*
X105835925Y-90280868D01*
X106001102Y-90342603D01*
X106169852Y-90419539D01*
X106185335Y-90427123D01*
X106533944Y-90642794D01*
X106820019Y-90913937D01*
X107041078Y-91236341D01*
X107194637Y-91605791D01*
X107278213Y-92018076D01*
X107293833Y-92307833D01*
X107255368Y-92736547D01*
X107143101Y-93132502D01*
X106961722Y-93488842D01*
X106715920Y-93798709D01*
X106410386Y-94055249D01*
X106049810Y-94251605D01*
X105932929Y-94297277D01*
X105811970Y-94347989D01*
X105733830Y-94395045D01*
X105716346Y-94420944D01*
X105742709Y-94463274D01*
X105813826Y-94566491D01*
X105924403Y-94723189D01*
X106069143Y-94925964D01*
X106242753Y-95167413D01*
X106439937Y-95440130D01*
X106655401Y-95736712D01*
X106754520Y-95872707D01*
X106980212Y-96182167D01*
X107193505Y-96474831D01*
X107388516Y-96742610D01*
X107559362Y-96977417D01*
X107700159Y-97171164D01*
X107805024Y-97315764D01*
X107868074Y-97403129D01*
X107879806Y-97419583D01*
X107976931Y-97557166D01*
X106595333Y-97556218D01*
X105537000Y-96034416D01*
X105273186Y-95656145D01*
X105052710Y-95342653D01*
X104871507Y-95088572D01*
X104725510Y-94888530D01*
X104610651Y-94737156D01*
X104522865Y-94629079D01*
X104458084Y-94558930D01*
X104412243Y-94521337D01*
X104383416Y-94510890D01*
X104288166Y-94509166D01*
X104288166Y-97557166D01*
X103145166Y-97557166D01*
X103145166Y-93548289D01*
X104288166Y-93548289D01*
X104700916Y-93522398D01*
X104908682Y-93503975D01*
X105111304Y-93476866D01*
X105275884Y-93445792D01*
X105325333Y-93432818D01*
X105618793Y-93311385D01*
X105860914Y-93142944D01*
X106037826Y-92937393D01*
X106051873Y-92914368D01*
X106110778Y-92805410D01*
X106146629Y-92706391D01*
X106165004Y-92590133D01*
X106171480Y-92429460D01*
X106172000Y-92329000D01*
X106158426Y-92057550D01*
X106112233Y-91847366D01*
X106025213Y-91678644D01*
X105889156Y-91531578D01*
X105817153Y-91472835D01*
X105631677Y-91356452D01*
X105413709Y-91271908D01*
X105147538Y-91214872D01*
X104817452Y-91181009D01*
X104743250Y-91176681D01*
X104288166Y-91152843D01*
X104288166Y-93548289D01*
X103145166Y-93548289D01*
X103145166Y-90093936D01*
X104214083Y-90119592D01*
G36*
X92180833Y-91207166D02*
G01*
X89217500Y-91207166D01*
X89217500Y-93069833D01*
X92096166Y-93069833D01*
X92096166Y-94128166D01*
X89217500Y-94128166D01*
X89217500Y-96456500D01*
X92180833Y-96456500D01*
X92180833Y-97557166D01*
X88074500Y-97557166D01*
X88074500Y-90106500D01*
X92180833Y-90106500D01*
X92180833Y-91207166D01*
G37*
X92180833Y-91207166D02*
X89217500Y-91207166D01*
X89217500Y-93069833D01*
X92096166Y-93069833D01*
X92096166Y-94128166D01*
X89217500Y-94128166D01*
X89217500Y-96456500D01*
X92180833Y-96456500D01*
X92180833Y-97557166D01*
X88074500Y-97557166D01*
X88074500Y-90106500D01*
X92180833Y-90106500D01*
X92180833Y-91207166D01*
G36*
X113880010Y-90036765D02*
G01*
X114444228Y-90163614D01*
X114967888Y-90362890D01*
X115446419Y-90630508D01*
X115875252Y-90962386D01*
X116249817Y-91354437D01*
X116565543Y-91802579D01*
X116817861Y-92302727D01*
X116993977Y-92819739D01*
X117032344Y-92975526D01*
X117059047Y-93123313D01*
X117076003Y-93284079D01*
X117085130Y-93478800D01*
X117088343Y-93728453D01*
X117088394Y-93853000D01*
X117080740Y-94226731D01*
X117055987Y-94539882D01*
X117009131Y-94815669D01*
X116935165Y-95077312D01*
X116829084Y-95348027D01*
X116712178Y-95598037D01*
X116429074Y-96079633D01*
X116082501Y-96507830D01*
X115678268Y-96877898D01*
X115222185Y-97185107D01*
X114720062Y-97424727D01*
X114300000Y-97561716D01*
X114050161Y-97611279D01*
X113744143Y-97646715D01*
X113409135Y-97667088D01*
X113072322Y-97671464D01*
X112760892Y-97658906D01*
X112502034Y-97628480D01*
X112479666Y-97624338D01*
X111929282Y-97477551D01*
X111417087Y-97259491D01*
X110949130Y-96974631D01*
X110531464Y-96627447D01*
X110170140Y-96222412D01*
X109871210Y-95764001D01*
X109812261Y-95652166D01*
X109638840Y-95259774D01*
X109517707Y-94864530D01*
X109445056Y-94446752D01*
X109417083Y-93986758D01*
X109417115Y-93984356D01*
X110535345Y-93984356D01*
X110590643Y-94459301D01*
X110715851Y-94904718D01*
X110906681Y-95313913D01*
X111158844Y-95680188D01*
X111468051Y-95996848D01*
X111830015Y-96257197D01*
X112240446Y-96454537D01*
X112509957Y-96540377D01*
X112795757Y-96593182D01*
X113126149Y-96619271D01*
X113466396Y-96618172D01*
X113781761Y-96589409D01*
X113939524Y-96559879D01*
X114382124Y-96413769D01*
X114782263Y-96196457D01*
X115134858Y-95912707D01*
X115434826Y-95567288D01*
X115677084Y-95164964D01*
X115832994Y-94784333D01*
X115879692Y-94634750D01*
X115911675Y-94501465D01*
X115931761Y-94361736D01*
X115942765Y-94192822D01*
X115947504Y-93971978D01*
X115948328Y-93853000D01*
X115948016Y-93607231D01*
X115942588Y-93422890D01*
X115929143Y-93276767D01*
X115904783Y-93145652D01*
X115866611Y-93006335D01*
X115827095Y-92882268D01*
X115674282Y-92511607D01*
X115470100Y-92159807D01*
X115230384Y-91851753D01*
X115070494Y-91693320D01*
X114724575Y-91442649D01*
X114329833Y-91250710D01*
X113900971Y-91120260D01*
X113452692Y-91054058D01*
X112999700Y-91054865D01*
X112556698Y-91125439D01*
X112355231Y-91183792D01*
X112050147Y-91300284D01*
X111796848Y-91433038D01*
X111562506Y-91601309D01*
X111397729Y-91745383D01*
X111088161Y-92088936D01*
X110844522Y-92483617D01*
X110669090Y-92924724D01*
X110564142Y-93407554D01*
X110554245Y-93486582D01*
X110535345Y-93984356D01*
X109417115Y-93984356D01*
X109421909Y-93632724D01*
X109446936Y-93247384D01*
X109493907Y-92918339D01*
X109569237Y-92618655D01*
X109679343Y-92321395D01*
X109792947Y-92075000D01*
X110071236Y-91602373D01*
X110410798Y-91183334D01*
X110804656Y-90821359D01*
X111245837Y-90519928D01*
X111727364Y-90282519D01*
X112242264Y-90112610D01*
X112783562Y-90013680D01*
X113344282Y-89989206D01*
X113880010Y-90036765D01*
G37*
X113880010Y-90036765D02*
X114444228Y-90163614D01*
X114967888Y-90362890D01*
X115446419Y-90630508D01*
X115875252Y-90962386D01*
X116249817Y-91354437D01*
X116565543Y-91802579D01*
X116817861Y-92302727D01*
X116993977Y-92819739D01*
X117032344Y-92975526D01*
X117059047Y-93123313D01*
X117076003Y-93284079D01*
X117085130Y-93478800D01*
X117088343Y-93728453D01*
X117088394Y-93853000D01*
X117080740Y-94226731D01*
X117055987Y-94539882D01*
X117009131Y-94815669D01*
X116935165Y-95077312D01*
X116829084Y-95348027D01*
X116712178Y-95598037D01*
X116429074Y-96079633D01*
X116082501Y-96507830D01*
X115678268Y-96877898D01*
X115222185Y-97185107D01*
X114720062Y-97424727D01*
X114300000Y-97561716D01*
X114050161Y-97611279D01*
X113744143Y-97646715D01*
X113409135Y-97667088D01*
X113072322Y-97671464D01*
X112760892Y-97658906D01*
X112502034Y-97628480D01*
X112479666Y-97624338D01*
X111929282Y-97477551D01*
X111417087Y-97259491D01*
X110949130Y-96974631D01*
X110531464Y-96627447D01*
X110170140Y-96222412D01*
X109871210Y-95764001D01*
X109812261Y-95652166D01*
X109638840Y-95259774D01*
X109517707Y-94864530D01*
X109445056Y-94446752D01*
X109417083Y-93986758D01*
X109417115Y-93984356D01*
X110535345Y-93984356D01*
X110590643Y-94459301D01*
X110715851Y-94904718D01*
X110906681Y-95313913D01*
X111158844Y-95680188D01*
X111468051Y-95996848D01*
X111830015Y-96257197D01*
X112240446Y-96454537D01*
X112509957Y-96540377D01*
X112795757Y-96593182D01*
X113126149Y-96619271D01*
X113466396Y-96618172D01*
X113781761Y-96589409D01*
X113939524Y-96559879D01*
X114382124Y-96413769D01*
X114782263Y-96196457D01*
X115134858Y-95912707D01*
X115434826Y-95567288D01*
X115677084Y-95164964D01*
X115832994Y-94784333D01*
X115879692Y-94634750D01*
X115911675Y-94501465D01*
X115931761Y-94361736D01*
X115942765Y-94192822D01*
X115947504Y-93971978D01*
X115948328Y-93853000D01*
X115948016Y-93607231D01*
X115942588Y-93422890D01*
X115929143Y-93276767D01*
X115904783Y-93145652D01*
X115866611Y-93006335D01*
X115827095Y-92882268D01*
X115674282Y-92511607D01*
X115470100Y-92159807D01*
X115230384Y-91851753D01*
X115070494Y-91693320D01*
X114724575Y-91442649D01*
X114329833Y-91250710D01*
X113900971Y-91120260D01*
X113452692Y-91054058D01*
X112999700Y-91054865D01*
X112556698Y-91125439D01*
X112355231Y-91183792D01*
X112050147Y-91300284D01*
X111796848Y-91433038D01*
X111562506Y-91601309D01*
X111397729Y-91745383D01*
X111088161Y-92088936D01*
X110844522Y-92483617D01*
X110669090Y-92924724D01*
X110564142Y-93407554D01*
X110554245Y-93486582D01*
X110535345Y-93984356D01*
X109417115Y-93984356D01*
X109421909Y-93632724D01*
X109446936Y-93247384D01*
X109493907Y-92918339D01*
X109569237Y-92618655D01*
X109679343Y-92321395D01*
X109792947Y-92075000D01*
X110071236Y-91602373D01*
X110410798Y-91183334D01*
X110804656Y-90821359D01*
X111245837Y-90519928D01*
X111727364Y-90282519D01*
X112242264Y-90112610D01*
X112783562Y-90013680D01*
X113344282Y-89989206D01*
X113880010Y-90036765D01*
G36*
X100467945Y-92784083D02*
G01*
X100464837Y-93348142D01*
X100461795Y-93834606D01*
X100458176Y-94250542D01*
X100453340Y-94603017D01*
X100446643Y-94899101D01*
X100437443Y-95145860D01*
X100425099Y-95350363D01*
X100408968Y-95519677D01*
X100388408Y-95660870D01*
X100362778Y-95781011D01*
X100331434Y-95887167D01*
X100293735Y-95986406D01*
X100249038Y-96085795D01*
X100196702Y-96192403D01*
X100149809Y-96285824D01*
X99926568Y-96640970D01*
X99636421Y-96959484D01*
X99292905Y-97231142D01*
X98909557Y-97445716D01*
X98499916Y-97592981D01*
X98382666Y-97620694D01*
X98087439Y-97662302D01*
X97750825Y-97677589D01*
X97410809Y-97666620D01*
X97105372Y-97629463D01*
X97049166Y-97618336D01*
X96619385Y-97484377D01*
X96221751Y-97278582D01*
X95864938Y-97009666D01*
X95557619Y-96686343D01*
X95308470Y-96317326D01*
X95126163Y-95911330D01*
X95041165Y-95601034D01*
X95027072Y-95520735D01*
X95015059Y-95424676D01*
X95004972Y-95306001D01*
X94996654Y-95157852D01*
X94989949Y-94973373D01*
X94984700Y-94745707D01*
X94980752Y-94467998D01*
X94977947Y-94133387D01*
X94976130Y-93735019D01*
X94975144Y-93266036D01*
X94974833Y-92719582D01*
X94974833Y-90106500D01*
X96117833Y-90106500D01*
X96117833Y-92623249D01*
X96118633Y-93252319D01*
X96121045Y-93797883D01*
X96125090Y-94261085D01*
X96130788Y-94643072D01*
X96138158Y-94944988D01*
X96147220Y-95167979D01*
X96157995Y-95313190D01*
X96165473Y-95364332D01*
X96280857Y-95720669D01*
X96463943Y-96026987D01*
X96712459Y-96280353D01*
X97024134Y-96477831D01*
X97028923Y-96480179D01*
X97156657Y-96538446D01*
X97268175Y-96575013D01*
X97390574Y-96594847D01*
X97550951Y-96602920D01*
X97705333Y-96604240D01*
X97911698Y-96601801D01*
X98061460Y-96590679D01*
X98182603Y-96565908D01*
X98303110Y-96522518D01*
X98394605Y-96481860D01*
X98674403Y-96310612D01*
X98921670Y-96078188D01*
X99117139Y-95805311D01*
X99212560Y-95602059D01*
X99311291Y-95334666D01*
X99339347Y-90106500D01*
X99911069Y-90106500D01*
X100482790Y-90106499D01*
X100467945Y-92784083D01*
G37*
X100467945Y-92784083D02*
X100464837Y-93348142D01*
X100461795Y-93834606D01*
X100458176Y-94250542D01*
X100453340Y-94603017D01*
X100446643Y-94899101D01*
X100437443Y-95145860D01*
X100425099Y-95350363D01*
X100408968Y-95519677D01*
X100388408Y-95660870D01*
X100362778Y-95781011D01*
X100331434Y-95887167D01*
X100293735Y-95986406D01*
X100249038Y-96085795D01*
X100196702Y-96192403D01*
X100149809Y-96285824D01*
X99926568Y-96640970D01*
X99636421Y-96959484D01*
X99292905Y-97231142D01*
X98909557Y-97445716D01*
X98499916Y-97592981D01*
X98382666Y-97620694D01*
X98087439Y-97662302D01*
X97750825Y-97677589D01*
X97410809Y-97666620D01*
X97105372Y-97629463D01*
X97049166Y-97618336D01*
X96619385Y-97484377D01*
X96221751Y-97278582D01*
X95864938Y-97009666D01*
X95557619Y-96686343D01*
X95308470Y-96317326D01*
X95126163Y-95911330D01*
X95041165Y-95601034D01*
X95027072Y-95520735D01*
X95015059Y-95424676D01*
X95004972Y-95306001D01*
X94996654Y-95157852D01*
X94989949Y-94973373D01*
X94984700Y-94745707D01*
X94980752Y-94467998D01*
X94977947Y-94133387D01*
X94976130Y-93735019D01*
X94975144Y-93266036D01*
X94974833Y-92719582D01*
X94974833Y-90106500D01*
X96117833Y-90106500D01*
X96117833Y-92623249D01*
X96118633Y-93252319D01*
X96121045Y-93797883D01*
X96125090Y-94261085D01*
X96130788Y-94643072D01*
X96138158Y-94944988D01*
X96147220Y-95167979D01*
X96157995Y-95313190D01*
X96165473Y-95364332D01*
X96280857Y-95720669D01*
X96463943Y-96026987D01*
X96712459Y-96280353D01*
X97024134Y-96477831D01*
X97028923Y-96480179D01*
X97156657Y-96538446D01*
X97268175Y-96575013D01*
X97390574Y-96594847D01*
X97550951Y-96602920D01*
X97705333Y-96604240D01*
X97911698Y-96601801D01*
X98061460Y-96590679D01*
X98182603Y-96565908D01*
X98303110Y-96522518D01*
X98394605Y-96481860D01*
X98674403Y-96310612D01*
X98921670Y-96078188D01*
X99117139Y-95805311D01*
X99212560Y-95602059D01*
X99311291Y-95334666D01*
X99339347Y-90106500D01*
X99911069Y-90106500D01*
X100482790Y-90106499D01*
X100467945Y-92784083D01*
%LPC*%
D13*
X130492500Y-65405000D03*
X130492500Y-67945000D03*
X130492500Y-70485000D03*
X130492500Y-73025000D03*
X130492500Y-75565000D03*
X130492500Y-78105000D03*
X130492500Y-80645000D03*
X130492500Y-83185000D03*
X130492500Y-85725000D03*
X130492500Y-88265000D03*
X130492500Y-90805000D03*
X130492500Y-93345000D03*
X145732500Y-93345000D03*
X145732500Y-90805000D03*
X145732500Y-88265000D03*
X145732500Y-85725000D03*
X145732500Y-83185000D03*
X145732500Y-80645000D03*
X145732500Y-78105000D03*
X145732500Y-75565000D03*
X145732500Y-73025000D03*
X145732500Y-70485000D03*
X145732500Y-67945000D03*
D14*
X145732500Y-65405000D03*
D15*
X138112500Y-122237500D03*
D16*
X133032500Y-122237500D03*
X143192500Y-122237500D03*
D15*
X119062500Y-122237500D03*
D16*
X113982500Y-122237500D03*
X124142500Y-122237500D03*
D15*
X100012500Y-122237500D03*
D16*
X94932500Y-122237500D03*
X105092500Y-122237500D03*
D15*
X80962500Y-122237500D03*
D16*
X75882500Y-122237500D03*
X86042500Y-122237500D03*
D15*
X138112500Y-103187500D03*
D16*
X133032500Y-103187500D03*
X143192500Y-103187500D03*
D15*
X119062500Y-103187500D03*
D16*
X113982500Y-103187500D03*
X124142500Y-103187500D03*
D15*
X100012500Y-103187500D03*
D16*
X94932500Y-103187500D03*
X105092500Y-103187500D03*
D15*
X80962500Y-103187500D03*
D16*
X75882500Y-103187500D03*
X86042500Y-103187500D03*
D15*
X138112500Y-84137500D03*
D16*
X133032500Y-84137500D03*
X143192500Y-84137500D03*
D15*
X119062500Y-84137500D03*
D16*
X113982500Y-84137500D03*
X124142500Y-84137500D03*
D15*
X100012500Y-84137500D03*
D16*
X94932500Y-84137500D03*
X105092500Y-84137500D03*
D15*
X80962500Y-84137500D03*
D16*
X75882500Y-84137500D03*
X86042500Y-84137500D03*
D15*
X138112500Y-65087500D03*
D16*
X133032500Y-65087500D03*
X143192500Y-65087500D03*
D15*
X119062500Y-65087500D03*
D16*
X113982500Y-65087500D03*
X124142500Y-65087500D03*
D15*
X100012500Y-65087500D03*
D16*
X94932500Y-65087500D03*
X105092500Y-65087500D03*
D15*
X80962500Y-65087500D03*
D16*
X75882500Y-65087500D03*
X86042500Y-65087500D03*
D17*
X128587500Y-118586250D03*
D14*
X128587500Y-126206250D03*
D17*
X109537500Y-118586250D03*
D14*
X109537500Y-126206250D03*
D17*
X90487500Y-118586250D03*
D14*
X90487500Y-126206250D03*
D17*
X71437500Y-118586250D03*
D14*
X71437500Y-126206250D03*
D17*
X128587500Y-99536250D03*
D14*
X128587500Y-107156250D03*
D17*
X109537500Y-99536250D03*
D14*
X109537500Y-107156250D03*
D17*
X90487500Y-99536250D03*
D14*
X90487500Y-107156250D03*
D17*
X71437500Y-99536250D03*
D14*
X71437500Y-107156250D03*
D17*
X127793750Y-80486250D03*
D14*
X127793750Y-88106250D03*
D17*
X109537500Y-80486250D03*
D14*
X109537500Y-88106250D03*
D17*
X90487500Y-80486250D03*
D14*
X90487500Y-88106250D03*
D17*
X71437500Y-80486250D03*
D14*
X71437500Y-88106250D03*
D17*
X127793750Y-61436250D03*
D14*
X127793750Y-69056250D03*
D17*
X109537500Y-61436250D03*
D14*
X109537500Y-69056250D03*
D17*
X90487500Y-61436250D03*
D14*
X90487500Y-69056250D03*
D17*
X71437500Y-61436250D03*
D14*
X71437500Y-69056250D03*
M02*
