M48
; DRILL file {KiCad (5.1.6)-1} date 08/20/20 21:51:49
; FORMAT={-:-/ absolute / inch / decimal}
; #@! TF.CreationDate,2020-08-20T21:51:49+02:00
; #@! TF.GenerationSoftware,Kicad,Pcbnew,(5.1.6)-1
; #@! TF.FileFunction,Plated,1,2,PTH
FMAT,2
INCH
T1C0.0315
T2C0.0433
T3C0.0579
%
G90
G05
T1
X2.8125Y-4.6688
X2.8125Y-4.9688
X4.3125Y-3.1687
X4.3125Y-3.4688
X2.8125Y-3.9187
X2.8125Y-4.2188
X5.0312Y-2.4187
X5.0312Y-2.7188
X5.0625Y-3.9187
X5.0625Y-4.2188
X4.3125Y-2.4187
X4.3125Y-2.7188
X3.5625Y-3.9187
X3.5625Y-4.2188
X4.3125Y-4.6688
X4.3125Y-4.9688
X2.8125Y-2.4187
X2.8125Y-2.7188
X4.3125Y-3.9187
X4.3125Y-4.2188
X3.5625Y-4.6688
X3.5625Y-4.9688
X5.0625Y-4.6688
X5.0625Y-4.9688
X5.0312Y-3.1687
X5.0312Y-3.4688
X3.5625Y-2.4187
X3.5625Y-2.7188
X2.8125Y-3.1687
X2.8125Y-3.4688
X3.5625Y-3.1687
X3.5625Y-3.4688
T2
X5.1375Y-2.575
X5.1375Y-2.675
X5.1375Y-2.775
X5.1375Y-2.875
X5.1375Y-2.975
X5.1375Y-3.075
X5.1375Y-3.175
X5.1375Y-3.275
X5.1375Y-3.375
X5.1375Y-3.475
X5.1375Y-3.575
X5.1375Y-3.675
X5.7375Y-2.575
X5.7375Y-2.675
X5.7375Y-2.775
X5.7375Y-2.875
X5.7375Y-2.975
X5.7375Y-3.075
X5.7375Y-3.175
X5.7375Y-3.275
X5.7375Y-3.375
X5.7375Y-3.475
X5.7375Y-3.575
X5.7375Y-3.675
T3
X4.5375Y-3.2125
X4.7875Y-3.1125
X3.7875Y-2.4625
X4.0375Y-2.3625
X3.0375Y-2.4625
X3.2875Y-2.3625
X3.0375Y-3.2125
X3.2875Y-3.1125
X3.0375Y-4.7125
X3.2875Y-4.6125
X3.7875Y-4.7125
X4.0375Y-4.6125
X3.7875Y-3.2125
X4.0375Y-3.1125
X5.2875Y-4.7125
X5.5375Y-4.6125
X4.5375Y-2.4625
X4.7875Y-2.3625
X5.2875Y-2.4625
X5.5375Y-2.3625
X4.5375Y-4.7125
X4.7875Y-4.6125
X5.2875Y-3.2125
X5.5375Y-3.1125
X3.7875Y-3.9625
X4.0375Y-3.8625
X3.0375Y-3.9625
X3.2875Y-3.8625
X5.2875Y-3.9625
X5.5375Y-3.8625
X4.5375Y-3.9625
X4.7875Y-3.8625
T0
M30
